<svg xmlns="http://www.w3.org/2000/svg" xmlns:xlink="http://www.w3.org/1999/xlink" viewBox="0 0 67 66" fill="#fff" fill-rule="evenodd" stroke="#000" stroke-linecap="round" stroke-linejoin="round"><use xlink:href="#A" x="1" y="1"/><symbol id="A" overflow="visible"><path d="M32 0C14.326 0 0 14.326 0 32s14.326 32 32 32 32-14.326 32-32S49.674 0 32 0zm15.19 39.848C36.248 50.79 16.7 47.3 16.7 47.3s-3.528-19.51 7.452-30.488c6.084-6.084 16.16-5.832 22.534.504s6.588 16.45.504 22.534zm-11.52-1.944l3.13-6.444 6.444-3.132-6.444-3.132-3.132-6.444-3.132 6.444-6.444 3.132 6.444 3.132z" stroke="none" fill="#4264fb" fill-rule="nonzero"/></symbol></svg>