<svg id="visual" viewBox="0 0 900 600" width="900" height="600" xmlns="http://www.w3.org/2000/svg" xmlns:xlink="http://www.w3.org/1999/xlink" version="1.1"><rect x="0" y="0" width="900" height="600" fill="#2dc2bd"></rect><g transform="translate(463.1478006207536 281.17724476397944)"><path d="M122.2 -177.4C151.9 -146.6 165.1 -102.3 197.3 -52.5C229.5 -2.7 280.7 52.6 287.7 112.8C294.8 173 257.6 238.2 202.3 256.2C146.9 274.3 73.5 245.1 11.6 229.2C-50.4 213.3 -100.7 210.6 -149.4 190.4C-198 170.2 -245 132.6 -277.7 79.1C-310.4 25.6 -328.7 -43.6 -302.1 -89.7C-275.5 -135.9 -203.9 -158.9 -146 -180.7C-88.2 -202.4 -44.1 -222.7 1.1 -224.2C46.2 -225.6 92.5 -208.3 122.2 -177.4" fill="#307473"></path></g></svg>