<svg id="visual" viewBox="0 0 960 300" width="960" height="300" xmlns="http://www.w3.org/2000/svg" xmlns:xlink="http://www.w3.org/1999/xlink" version="1.1"><rect x="0" y="0" width="960" height="300" fill="#2dc2bd"></rect><g transform="translate(486.37029414197536 168.32607313771092)"><path d="M75.4 -113.5C94.5 -90 104.3 -63.6 116.8 -35.5C129.3 -7.4 144.6 22.2 135.3 41.9C126.1 61.6 92.4 71.2 65.8 78.6C39.2 85.9 19.6 91 -6.2 99.5C-31.9 108 -63.9 119.9 -93.6 113.6C-123.3 107.2 -150.8 82.6 -150.9 55.4C-150.9 28.2 -123.5 -1.5 -102.9 -23.8C-82.4 -46.1 -68.8 -61 -52.7 -85.4C-36.7 -109.9 -18.4 -144 4.9 -150.7C28.2 -157.5 56.4 -137 75.4 -113.5" fill="#307473"></path></g></svg>