<svg id="visual" viewBox="0 0 900 600" width="900" height="600" xmlns="http://www.w3.org/2000/svg" xmlns:xlink="http://www.w3.org/1999/xlink" version="1.1"><rect x="0" y="0" width="900" height="600" fill="#2dc2bd"></rect><g transform="translate(452.53081836340175 292.5242592714301)"><path d="M130.8 -182.4C158.5 -159.9 162.5 -107 181.3 -57C200 -7.1 233.6 39.9 220.6 69.1C207.6 98.3 147.9 109.9 103.3 128.2C58.8 146.6 29.4 171.8 -14.7 192C-58.8 212.2 -117.6 227.5 -159.2 208.2C-200.9 188.9 -225.5 135.1 -228.3 84.2C-231.1 33.3 -212.1 -14.7 -197.1 -65.1C-182.2 -115.4 -171.3 -168.2 -139.2 -189.2C-107 -210.2 -53.5 -199.6 -1 -198.3C51.5 -196.9 103.1 -204.8 130.8 -182.4" fill="#307473"></path></g></svg>