<svg id="visual" viewBox="0 0 900 600" width="900" height="600" xmlns="http://www.w3.org/2000/svg" xmlns:xlink="http://www.w3.org/1999/xlink" version="1.1"><rect x="0" y="0" width="900" height="600" fill="#2dc2bd"></rect><g transform="translate(483.88633066888235 323.3233628482468)"><path d="M132.2 -191.4C169.9 -154.5 198.1 -114 217.8 -67.5C237.4 -20.9 248.5 31.7 229.2 69.3C209.8 106.8 160 129.3 116.8 147.5C73.5 165.8 36.7 179.9 -16.7 202.9C-70.1 225.9 -140.3 257.8 -192.1 242.3C-243.9 226.8 -277.5 163.9 -294.2 98.8C-311 33.7 -311 -33.7 -295.9 -101.1C-280.8 -168.5 -250.6 -235.9 -198.8 -268.3C-146.9 -300.6 -73.5 -297.8 -13.1 -279.7C47.2 -261.7 94.4 -228.3 132.2 -191.4" fill="#307473"></path></g></svg>