<svg id="visual" viewBox="0 0 960 300" width="960" height="300" xmlns="http://www.w3.org/2000/svg" xmlns:xlink="http://www.w3.org/1999/xlink" version="1.1"><rect x="0" y="0" width="960" height="300" fill="#001220"></rect><path d="M0 112L22.8 112.8C45.7 113.7 91.3 115.3 137 109.7C182.7 104 228.3 91 274 88.5C319.7 86 365.3 94 411.2 101.2C457 108.3 503 114.7 548.8 117.3C594.7 120 640.3 119 686 116.7C731.7 114.3 777.3 110.7 823 107C868.7 103.3 914.3 99.7 937.2 97.8L960 96L960 0L937.2 0C914.3 0 868.7 0 823 0C777.3 0 731.7 0 686 0C640.3 0 594.7 0 548.8 0C503 0 457 0 411.2 0C365.3 0 319.7 0 274 0C228.3 0 182.7 0 137 0C91.3 0 45.7 0 22.8 0L0 0Z" fill="#fa7268"></path><path d="M0 79L22.8 78.7C45.7 78.3 91.3 77.7 137 78.2C182.7 78.7 228.3 80.3 274 77.5C319.7 74.7 365.3 67.3 411.2 63.7C457 60 503 60 548.8 63C594.7 66 640.3 72 686 77.7C731.7 83.3 777.3 88.7 823 90.3C868.7 92 914.3 90 937.2 89L960 88L960 0L937.2 0C914.3 0 868.7 0 823 0C777.3 0 731.7 0 686 0C640.3 0 594.7 0 548.8 0C503 0 457 0 411.2 0C365.3 0 319.7 0 274 0C228.3 0 182.7 0 137 0C91.3 0 45.7 0 22.8 0L0 0Z" fill="#ef5f67"></path><path d="M0 79L22.8 77.3C45.7 75.7 91.3 72.3 137 68.7C182.7 65 228.3 61 274 56.8C319.7 52.7 365.3 48.3 411.2 48.3C457 48.3 503 52.7 548.8 57.2C594.7 61.7 640.3 66.3 686 64.5C731.7 62.7 777.3 54.3 823 53.8C868.7 53.3 914.3 60.7 937.2 64.3L960 68L960 0L937.2 0C914.3 0 868.7 0 823 0C777.3 0 731.7 0 686 0C640.3 0 594.7 0 548.8 0C503 0 457 0 411.2 0C365.3 0 319.7 0 274 0C228.3 0 182.7 0 137 0C91.3 0 45.7 0 22.8 0L0 0Z" fill="#e34c67"></path><path d="M0 48L22.8 47.7C45.7 47.3 91.3 46.7 137 44.3C182.7 42 228.3 38 274 38.2C319.7 38.3 365.3 42.7 411.2 42.3C457 42 503 37 548.8 37C594.7 37 640.3 42 686 44.5C731.7 47 777.3 47 823 47.8C868.7 48.7 914.3 50.3 937.2 51.2L960 52L960 0L937.2 0C914.3 0 868.7 0 823 0C777.3 0 731.7 0 686 0C640.3 0 594.7 0 548.8 0C503 0 457 0 411.2 0C365.3 0 319.7 0 274 0C228.3 0 182.7 0 137 0C91.3 0 45.7 0 22.8 0L0 0Z" fill="#d53867"></path><path d="M0 23L22.8 24.5C45.7 26 91.3 29 137 29C182.7 29 228.3 26 274 26.5C319.7 27 365.3 31 411.2 32.5C457 34 503 33 548.8 30.5C594.7 28 640.3 24 686 22.5C731.7 21 777.3 22 823 21.3C868.7 20.7 914.3 18.3 937.2 17.2L960 16L960 0L937.2 0C914.3 0 868.7 0 823 0C777.3 0 731.7 0 686 0C640.3 0 594.7 0 548.8 0C503 0 457 0 411.2 0C365.3 0 319.7 0 274 0C228.3 0 182.7 0 137 0C91.3 0 45.7 0 22.8 0L0 0Z" fill="#c62368"></path></svg>