<svg id="visual" viewBox="0 0 960 300" width="960" height="300" xmlns="http://www.w3.org/2000/svg" xmlns:xlink="http://www.w3.org/1999/xlink" version="1.1"><rect x="0" y="0" width="960" height="300" fill="#202731"></rect><path d="M0 113L9.3 115.3C18.7 117.7 37.3 122.3 56.2 127C75 131.7 94 136.3 112.8 139C131.7 141.7 150.3 142.3 169.2 140C188 137.7 207 132.3 225.8 133.2C244.7 134 263.3 141 282.2 137C301 133 320 118 338.8 117.7C357.7 117.3 376.3 131.7 395.2 136.5C414 141.3 433 136.7 451.8 132.8C470.7 129 489.3 126 508.2 127.7C527 129.3 546 135.7 564.8 138.8C583.7 142 602.3 142 621.2 139.5C640 137 659 132 677.8 132.5C696.7 133 715.3 139 734.2 141C753 143 772 141 790.8 141.7C809.7 142.3 828.3 145.7 847.2 145.5C866 145.3 885 141.7 903.8 136.5C922.7 131.3 941.3 124.7 950.7 121.3L960 118L960 0L950.7 0C941.3 0 922.7 0 903.8 0C885 0 866 0 847.2 0C828.3 0 809.7 0 790.8 0C772 0 753 0 734.2 0C715.3 0 696.7 0 677.8 0C659 0 640 0 621.2 0C602.3 0 583.7 0 564.8 0C546 0 527 0 508.2 0C489.3 0 470.7 0 451.8 0C433 0 414 0 395.2 0C376.3 0 357.7 0 338.8 0C320 0 301 0 282.2 0C263.3 0 244.7 0 225.8 0C207 0 188 0 169.2 0C150.3 0 131.7 0 112.8 0C94 0 75 0 56.2 0C37.3 0 18.7 0 9.3 0L0 0Z" fill="#7a82ab"></path><path d="M0 103L9.3 104C18.7 105 37.3 107 56.2 108.5C75 110 94 111 112.8 109C131.7 107 150.3 102 169.2 103.5C188 105 207 113 225.8 115.8C244.7 118.7 263.3 116.3 282.2 116C301 115.7 320 117.3 338.8 118C357.7 118.7 376.3 118.3 395.2 118.2C414 118 433 118 451.8 119.7C470.7 121.3 489.3 124.7 508.2 122.2C527 119.7 546 111.3 564.8 110.8C583.7 110.3 602.3 117.7 621.2 117.5C640 117.3 659 109.7 677.8 104C696.7 98.3 715.3 94.7 734.2 94.2C753 93.7 772 96.3 790.8 97.5C809.7 98.7 828.3 98.3 847.2 97.3C866 96.3 885 94.7 903.8 95.8C922.7 97 941.3 101 950.7 103L960 105L960 0L950.7 0C941.3 0 922.7 0 903.8 0C885 0 866 0 847.2 0C828.3 0 809.7 0 790.8 0C772 0 753 0 734.2 0C715.3 0 696.7 0 677.8 0C659 0 640 0 621.2 0C602.3 0 583.7 0 564.8 0C546 0 527 0 508.2 0C489.3 0 470.7 0 451.8 0C433 0 414 0 395.2 0C376.3 0 357.7 0 338.8 0C320 0 301 0 282.2 0C263.3 0 244.7 0 225.8 0C207 0 188 0 169.2 0C150.3 0 131.7 0 112.8 0C94 0 75 0 56.2 0C37.3 0 18.7 0 9.3 0L0 0Z" fill="#6a8fbb"></path><path d="M0 103L9.3 101.8C18.7 100.7 37.3 98.3 56.2 97.3C75 96.3 94 96.7 112.8 92.2C131.7 87.7 150.3 78.3 169.2 75.5C188 72.7 207 76.3 225.8 77.8C244.7 79.3 263.3 78.7 282.2 80.3C301 82 320 86 338.8 90.3C357.7 94.7 376.3 99.3 395.2 96.3C414 93.3 433 82.7 451.8 79.7C470.7 76.7 489.3 81.3 508.2 83.3C527 85.3 546 84.7 564.8 86.7C583.7 88.7 602.3 93.3 621.2 93.7C640 94 659 90 677.8 87.5C696.7 85 715.3 84 734.2 85.8C753 87.7 772 92.3 790.8 91C809.7 89.7 828.3 82.3 847.2 78.5C866 74.7 885 74.3 903.8 75.5C922.7 76.7 941.3 79.3 950.7 80.7L960 82L960 0L950.7 0C941.3 0 922.7 0 903.8 0C885 0 866 0 847.2 0C828.3 0 809.7 0 790.8 0C772 0 753 0 734.2 0C715.3 0 696.7 0 677.8 0C659 0 640 0 621.2 0C602.3 0 583.7 0 564.8 0C546 0 527 0 508.2 0C489.3 0 470.7 0 451.8 0C433 0 414 0 395.2 0C376.3 0 357.7 0 338.8 0C320 0 301 0 282.2 0C263.3 0 244.7 0 225.8 0C207 0 188 0 169.2 0C150.3 0 131.7 0 112.8 0C94 0 75 0 56.2 0C37.3 0 18.7 0 9.3 0L0 0Z" fill="#549dc5"></path><path d="M0 53L9.3 57C18.7 61 37.3 69 56.2 70C75 71 94 65 112.8 63.8C131.7 62.7 150.3 66.3 169.2 65.8C188 65.3 207 60.7 225.8 58C244.7 55.3 263.3 54.7 282.2 56.3C301 58 320 62 338.8 63.3C357.7 64.7 376.3 63.3 395.2 65.2C414 67 433 72 451.8 71.7C470.7 71.3 489.3 65.7 508.2 66.3C527 67 546 74 564.8 73.2C583.7 72.3 602.3 63.7 621.2 63.7C640 63.7 659 72.3 677.8 75.2C696.7 78 715.3 75 734.2 74.7C753 74.3 772 76.7 790.8 75.2C809.7 73.7 828.3 68.3 847.2 68.7C866 69 885 75 903.8 74C922.7 73 941.3 65 950.7 61L960 57L960 0L950.7 0C941.3 0 922.7 0 903.8 0C885 0 866 0 847.2 0C828.3 0 809.7 0 790.8 0C772 0 753 0 734.2 0C715.3 0 696.7 0 677.8 0C659 0 640 0 621.2 0C602.3 0 583.7 0 564.8 0C546 0 527 0 508.2 0C489.3 0 470.7 0 451.8 0C433 0 414 0 395.2 0C376.3 0 357.7 0 338.8 0C320 0 301 0 282.2 0C263.3 0 244.7 0 225.8 0C207 0 188 0 169.2 0C150.3 0 131.7 0 112.8 0C94 0 75 0 56.2 0C37.3 0 18.7 0 9.3 0L0 0Z" fill="#3aaac9"></path><path d="M0 61L9.3 59.5C18.7 58 37.3 55 56.2 52.5C75 50 94 48 112.8 49.2C131.7 50.3 150.3 54.7 169.2 54.5C188 54.3 207 49.7 225.8 46.5C244.7 43.3 263.3 41.7 282.2 41.2C301 40.7 320 41.3 338.8 42.3C357.7 43.3 376.3 44.7 395.2 45.5C414 46.3 433 46.7 451.8 48.7C470.7 50.7 489.3 54.3 508.2 53.7C527 53 546 48 564.8 46.5C583.7 45 602.3 47 621.2 48.7C640 50.3 659 51.7 677.8 50.2C696.7 48.7 715.3 44.3 734.2 44C753 43.7 772 47.3 790.8 48.8C809.7 50.3 828.3 49.7 847.2 48.3C866 47 885 45 903.8 44.5C922.7 44 941.3 45 950.7 45.5L960 46L960 0L950.7 0C941.3 0 922.7 0 903.8 0C885 0 866 0 847.2 0C828.3 0 809.7 0 790.8 0C772 0 753 0 734.2 0C715.3 0 696.7 0 677.8 0C659 0 640 0 621.2 0C602.3 0 583.7 0 564.8 0C546 0 527 0 508.2 0C489.3 0 470.7 0 451.8 0C433 0 414 0 395.2 0C376.3 0 357.7 0 338.8 0C320 0 301 0 282.2 0C263.3 0 244.7 0 225.8 0C207 0 188 0 169.2 0C150.3 0 131.7 0 112.8 0C94 0 75 0 56.2 0C37.3 0 18.7 0 9.3 0L0 0Z" fill="#24b7c6"></path><path d="M0 20L9.3 20.8C18.7 21.7 37.3 23.3 56.2 25.7C75 28 94 31 112.8 33C131.7 35 150.3 36 169.2 36.2C188 36.3 207 35.7 225.8 33.2C244.7 30.7 263.3 26.3 282.2 25.8C301 25.3 320 28.7 338.8 29.8C357.7 31 376.3 30 395.2 28.8C414 27.7 433 26.3 451.8 26.3C470.7 26.3 489.3 27.7 508.2 29.3C527 31 546 33 564.8 33.7C583.7 34.3 602.3 33.7 621.2 33.3C640 33 659 33 677.8 33.3C696.7 33.7 715.3 34.3 734.2 32.2C753 30 772 25 790.8 23.2C809.7 21.3 828.3 22.7 847.2 25.5C866 28.3 885 32.7 903.8 32.8C922.7 33 941.3 29 950.7 27L960 25L960 0L950.7 0C941.3 0 922.7 0 903.8 0C885 0 866 0 847.2 0C828.3 0 809.7 0 790.8 0C772 0 753 0 734.2 0C715.3 0 696.7 0 677.8 0C659 0 640 0 621.2 0C602.3 0 583.7 0 564.8 0C546 0 527 0 508.2 0C489.3 0 470.7 0 451.8 0C433 0 414 0 395.2 0C376.3 0 357.7 0 338.8 0C320 0 301 0 282.2 0C263.3 0 244.7 0 225.8 0C207 0 188 0 169.2 0C150.3 0 131.7 0 112.8 0C94 0 75 0 56.2 0C37.3 0 18.7 0 9.3 0L0 0Z" fill="#2dc2bd"></path></svg>