<svg id="visual" viewBox="0 0 960 300" width="960" height="300" xmlns="http://www.w3.org/2000/svg" xmlns:xlink="http://www.w3.org/1999/xlink" version="1.1"><rect x="0" y="0" width="960" height="300" fill="#001220"></rect><path d="M0 97L20 100.2C40 103.3 80 109.7 120 105.7C160 101.7 200 87.3 240 82C280 76.7 320 80.3 360 83.8C400 87.3 440 90.7 480 94C520 97.3 560 100.7 600 100C640 99.3 680 94.7 720 97.2C760 99.7 800 109.3 840 108.3C880 107.3 920 95.7 940 89.8L960 84L960 0L940 0C920 0 880 0 840 0C800 0 760 0 720 0C680 0 640 0 600 0C560 0 520 0 480 0C440 0 400 0 360 0C320 0 280 0 240 0C200 0 160 0 120 0C80 0 40 0 20 0L0 0Z" fill="#a1e2c4"></path><path d="M0 69L20 73.2C40 77.3 80 85.7 120 91.3C160 97 200 100 240 94.8C280 89.7 320 76.3 360 68.8C400 61.3 440 59.7 480 66.8C520 74 560 90 600 93.3C640 96.7 680 87.3 720 86.2C760 85 800 92 840 89.2C880 86.3 920 73.7 940 67.3L960 61L960 0L940 0C920 0 880 0 840 0C800 0 760 0 720 0C680 0 640 0 600 0C560 0 520 0 480 0C440 0 400 0 360 0C320 0 280 0 240 0C200 0 160 0 120 0C80 0 40 0 20 0L0 0Z" fill="#85ccb9"></path><path d="M0 48L20 51.5C40 55 80 62 120 64.8C160 67.7 200 66.3 240 68C280 69.7 320 74.3 360 78.7C400 83 440 87 480 83C520 79 560 67 600 65.7C640 64.3 680 73.7 720 72.2C760 70.7 800 58.3 840 56.5C880 54.7 920 63.3 940 67.7L960 72L960 0L940 0C920 0 880 0 840 0C800 0 760 0 720 0C680 0 640 0 600 0C560 0 520 0 480 0C440 0 400 0 360 0C320 0 280 0 240 0C200 0 160 0 120 0C80 0 40 0 20 0L0 0Z" fill="#6cb6ae"></path><path d="M0 49L20 47C40 45 80 41 120 39.3C160 37.7 200 38.3 240 42.2C280 46 320 53 360 52.7C400 52.3 440 44.7 480 43.3C520 42 560 47 600 53.8C640 60.7 680 69.3 720 70.7C760 72 800 66 840 59.7C880 53.3 920 46.7 940 43.3L960 40L960 0L940 0C920 0 880 0 840 0C800 0 760 0 720 0C680 0 640 0 600 0C560 0 520 0 480 0C440 0 400 0 360 0C320 0 280 0 240 0C200 0 160 0 120 0C80 0 40 0 20 0L0 0Z" fill="#57a0a1"></path><path d="M0 28L20 32.5C40 37 80 46 120 50.3C160 54.7 200 54.3 240 52.5C280 50.7 320 47.3 360 43.5C400 39.7 440 35.3 480 37.8C520 40.3 560 49.7 600 50C640 50.3 680 41.7 720 37.2C760 32.7 800 32.3 840 31.2C880 30 920 28 940 27L960 26L960 0L940 0C920 0 880 0 840 0C800 0 760 0 720 0C680 0 640 0 600 0C560 0 520 0 480 0C440 0 400 0 360 0C320 0 280 0 240 0C200 0 160 0 120 0C80 0 40 0 20 0L0 0Z" fill="#458a93"></path><path d="M0 33L20 34.7C40 36.3 80 39.7 120 37C160 34.3 200 25.7 240 25C280 24.3 320 31.7 360 31.7C400 31.7 440 24.3 480 20.7C520 17 560 17 600 21.7C640 26.3 680 35.7 720 38.5C760 41.3 800 37.7 840 35.5C880 33.3 920 32.7 940 32.3L960 32L960 0L940 0C920 0 880 0 840 0C800 0 760 0 720 0C680 0 640 0 600 0C560 0 520 0 480 0C440 0 400 0 360 0C320 0 280 0 240 0C200 0 160 0 120 0C80 0 40 0 20 0L0 0Z" fill="#387483"></path><path d="M0 7L20 7.7C40 8.3 80 9.7 120 9.7C160 9.7 200 8.3 240 9.7C280 11 320 15 360 15C400 15 440 11 480 10.8C520 10.7 560 14.3 600 18C640 21.7 680 25.3 720 24.3C760 23.3 800 17.7 840 15.2C880 12.7 920 13.3 940 13.7L960 14L960 0L940 0C920 0 880 0 840 0C800 0 760 0 720 0C680 0 640 0 600 0C560 0 520 0 480 0C440 0 400 0 360 0C320 0 280 0 240 0C200 0 160 0 120 0C80 0 40 0 20 0L0 0Z" fill="#2d5f72"></path></svg>