<svg id="visual" viewBox="0 0 960 300" width="960" height="300" xmlns="http://www.w3.org/2000/svg" xmlns:xlink="http://www.w3.org/1999/xlink" version="1.1"><rect x="0" y="0" width="960" height="300" fill="#001220"></rect><path d="M0 201L20 197.8C40 194.7 80 188.3 120 192.3C160 196.3 200 210.7 240 216C280 221.3 320 217.7 360 214.2C400 210.7 440 207.3 480 204C520 200.7 560 197.3 600 198C640 198.7 680 203.3 720 200.8C760 198.3 800 188.7 840 189.7C880 190.7 920 202.3 940 208.2L960 214L960 301L940 301C920 301 880 301 840 301C800 301 760 301 720 301C680 301 640 301 600 301C560 301 520 301 480 301C440 301 400 301 360 301C320 301 280 301 240 301C200 301 160 301 120 301C80 301 40 301 20 301L0 301Z" fill="#a1e2c4"></path><path d="M0 229L20 224.8C40 220.7 80 212.3 120 206.7C160 201 200 198 240 203.2C280 208.3 320 221.7 360 229.2C400 236.7 440 238.3 480 231.2C520 224 560 208 600 204.7C640 201.3 680 210.7 720 211.8C760 213 800 206 840 208.8C880 211.7 920 224.3 940 230.7L960 237L960 301L940 301C920 301 880 301 840 301C800 301 760 301 720 301C680 301 640 301 600 301C560 301 520 301 480 301C440 301 400 301 360 301C320 301 280 301 240 301C200 301 160 301 120 301C80 301 40 301 20 301L0 301Z" fill="#85ccb9"></path><path d="M0 250L20 246.5C40 243 80 236 120 233.2C160 230.3 200 231.7 240 230C280 228.3 320 223.7 360 219.3C400 215 440 211 480 215C520 219 560 231 600 232.3C640 233.7 680 224.3 720 225.8C760 227.3 800 239.7 840 241.5C880 243.3 920 234.7 940 230.3L960 226L960 301L940 301C920 301 880 301 840 301C800 301 760 301 720 301C680 301 640 301 600 301C560 301 520 301 480 301C440 301 400 301 360 301C320 301 280 301 240 301C200 301 160 301 120 301C80 301 40 301 20 301L0 301Z" fill="#6cb6ae"></path><path d="M0 249L20 251C40 253 80 257 120 258.7C160 260.3 200 259.7 240 255.8C280 252 320 245 360 245.3C400 245.7 440 253.3 480 254.7C520 256 560 251 600 244.2C640 237.3 680 228.7 720 227.3C760 226 800 232 840 238.3C880 244.7 920 251.3 940 254.7L960 258L960 301L940 301C920 301 880 301 840 301C800 301 760 301 720 301C680 301 640 301 600 301C560 301 520 301 480 301C440 301 400 301 360 301C320 301 280 301 240 301C200 301 160 301 120 301C80 301 40 301 20 301L0 301Z" fill="#57a0a1"></path><path d="M0 270L20 265.5C40 261 80 252 120 247.7C160 243.3 200 243.7 240 245.5C280 247.3 320 250.7 360 254.5C400 258.3 440 262.7 480 260.2C520 257.7 560 248.3 600 248C640 247.7 680 256.3 720 260.8C760 265.3 800 265.7 840 266.8C880 268 920 270 940 271L960 272L960 301L940 301C920 301 880 301 840 301C800 301 760 301 720 301C680 301 640 301 600 301C560 301 520 301 480 301C440 301 400 301 360 301C320 301 280 301 240 301C200 301 160 301 120 301C80 301 40 301 20 301L0 301Z" fill="#458a93"></path><path d="M0 265L20 263.3C40 261.7 80 258.3 120 261C160 263.7 200 272.3 240 273C280 273.7 320 266.3 360 266.3C400 266.3 440 273.7 480 277.3C520 281 560 281 600 276.3C640 271.7 680 262.3 720 259.5C760 256.7 800 260.3 840 262.5C880 264.7 920 265.3 940 265.7L960 266L960 301L940 301C920 301 880 301 840 301C800 301 760 301 720 301C680 301 640 301 600 301C560 301 520 301 480 301C440 301 400 301 360 301C320 301 280 301 240 301C200 301 160 301 120 301C80 301 40 301 20 301L0 301Z" fill="#387483"></path><path d="M0 291L20 290.3C40 289.7 80 288.3 120 288.3C160 288.3 200 289.7 240 288.3C280 287 320 283 360 283C400 283 440 287 480 287.2C520 287.3 560 283.7 600 280C640 276.3 680 272.7 720 273.7C760 274.7 800 280.3 840 282.8C880 285.3 920 284.7 940 284.3L960 284L960 301L940 301C920 301 880 301 840 301C800 301 760 301 720 301C680 301 640 301 600 301C560 301 520 301 480 301C440 301 400 301 360 301C320 301 280 301 240 301C200 301 160 301 120 301C80 301 40 301 20 301L0 301Z" fill="#2d5f72"></path></svg>