<?xml version="1.0" encoding="utf-8"?>
<!-- Generator: Adobe Illustrator 24.1.2, SVG Export Plug-In . SVG Version: 6.00 Build 0)  -->
<svg version="1.1" id="Layer_1" xmlns="http://www.w3.org/2000/svg" xmlns:xlink="http://www.w3.org/1999/xlink" x="0px" y="0px"
	 viewBox="0 0 1920 1080" style="enable-background:new 0 0 1920 1080;" xml:space="preserve">
<style type="text/css">
	.st0{fill:url(#SVGID_1_);}
	.st1{fill:url(#SVGID_2_);}
	.st2{fill:url(#SVGID_3_);}
	.st3{fill:url(#SVGID_4_);}
	.st4{fill:url(#SVGID_5_);}
	.st5{fill:url(#SVGID_6_);}
	.st6{fill:url(#SVGID_7_);}
	.st7{fill:url(#SVGID_8_);}
	.st8{fill:url(#SVGID_9_);}
	.st9{fill:url(#SVGID_10_);}
	.st10{fill:url(#SVGID_11_);}
	.st11{fill:url(#SVGID_12_);}
	.st12{fill:none;stroke:url(#SVGID_13_);}
	.st13{fill:none;stroke:url(#SVGID_14_);}
	.st14{fill:none;stroke:url(#SVGID_15_);}
	.st15{fill:none;stroke:url(#SVGID_16_);}
	.st16{fill:none;stroke:url(#SVGID_17_);}
	.st17{fill:none;stroke:url(#SVGID_18_);}
	.st18{fill:none;stroke:url(#SVGID_19_);}
	.st19{fill:none;stroke:url(#SVGID_20_);}
	.st20{fill:none;stroke:url(#SVGID_21_);}
	.st21{fill:none;stroke:url(#SVGID_22_);}
	.st22{fill:none;stroke:url(#SVGID_23_);}
	.st23{fill:none;stroke:url(#SVGID_24_);}
</style>
<g>
	<g>
		<linearGradient id="SVGID_1_" gradientUnits="userSpaceOnUse" x1="520.8071" y1="470.9487" x2="1171.3018" y2="470.9487">
			<stop  offset="0" style="stop-color:#39A0ED"/>
			<stop  offset="0.5963" style="stop-color:#158CAF"/>
			<stop  offset="0.9944" style="stop-color:#00808A"/>
		</linearGradient>
		<path class="st0" d="M521.6,483.5h3.3c1.9,6.7,4.1,12.3,6.7,16.8c2.6,4.5,5.5,7.9,8.5,10.1c3.1,2.2,6.3,3.3,9.7,3.3
			c4.2,0,7.8-1.6,10.8-5c3-3.3,4.5-7.5,4.5-12.7c0-4.8-1-8.6-3-11.3c-2-2.7-4.4-4.6-7.1-5.6c-2.8-1.1-6.4-2.1-10.9-3
			c-4.5-0.9-7.7-1.8-9.6-2.6c-2.9-1.3-5.4-3-7.5-5.2c-2.1-2.2-3.6-4.9-4.7-8c-1.1-3.1-1.6-6.4-1.6-10c0-3.4,0.5-6.6,1.4-9.8
			c0.9-3.1,2.3-5.9,4-8.3c1.7-2.4,3.8-4.3,6.3-5.7c2.5-1.4,5.2-2.1,8.3-2.1c2.2,0,4.9,0.4,8.1,1.2c3.2,0.8,5.5,1.2,6.9,1.2
			c1.8,0,3.5-0.5,5.2-1.5h3.8l2.2,26.1h-3.5c-3.3-7.8-6.8-13.7-10.4-17.8c-3.6-4.1-7.9-6.1-12.8-6.1c-2.4,0-4.7,0.7-6.8,2.1
			c-2.1,1.4-3.8,3.4-5,5.9c-1.3,2.5-1.9,5.2-1.9,8.3c0,4.2,1.1,7.5,3.4,9.7c2.3,2.2,5.7,3.9,10.2,5.1c4.5,1.1,8.5,2.1,12.1,2.9
			c3.6,0.8,6.4,1.8,8.5,3.1c3.8,2.4,6.8,5.6,8.9,9.8c2.1,4.2,3.2,8.9,3.2,14.2c0,5.1-1,9.8-2.9,14.2c-2,4.4-4.7,7.9-8.2,10.6
			s-7.5,4-11.8,4c-2.5,0-4.3-0.2-5.6-0.7c-1.2-0.5-3.4-1.4-6.4-2.7c-3-1.4-5.4-2-7-2c-2.7,0-4.8,1.3-6.4,3.9h-2.9V483.5z M523.3,443
			c-0.6,3.2-0.9,5.8-0.9,7.8c0,2.2,0.3,4.5,0.9,6.8c0.6,2.3,1.5,4.4,2.7,6.4c1.2,2,2.5,3.6,4,4.9c2,1.7,4.2,2.9,6.6,3.6
			c2.4,0.7,5.9,1.5,10.5,2.5c4.6,1,7.8,1.9,9.5,2.8c3.2,1.5,5.7,3.7,7.5,6.8c1.8,3,2.7,6.6,2.7,10.7c0,3-0.7,6.3-2.1,9.6
			c2.8-3.6,4.1-7.8,4.1-12.6c0-5-1-8.9-3.1-11.8c-2-2.9-4.6-5-7.6-6.3c-3-1.4-7.1-2.6-12.3-3.8c-5.2-1.2-7.9-1.8-8-1.8
			c-4.8-1.6-8.4-4.3-10.9-8.1c-2.5-3.8-3.7-8.3-3.7-13.3c0-0.9,0-1.7,0-2.3C523.2,444.1,523.2,443.5,523.3,443z M523.3,495.3v16.9
			c1-1.6,1.9-2.6,2.7-3.1c0.8-0.5,2.1-0.7,3.8-0.6c-1.1-1.7-1.9-2.9-2.4-3.6c-0.5-0.8-1.1-1.9-1.8-3.5
			C524.9,499.9,524.1,497.9,523.3,495.3z M561.4,442.5l-1.7-12.1c-1.1,0.5-2.2,0.7-3.3,0.7c-1.2,0-2.5-0.2-3.9-0.7
			c1.3,1.1,2.5,2.3,3.5,3.7c1,1.4,2.1,3,3.2,4.9S561,442,561.4,442.5z"/>
		<linearGradient id="SVGID_2_" gradientUnits="userSpaceOnUse" x1="520.8071" y1="470.9487" x2="1171.3018" y2="470.9487">
			<stop  offset="0" style="stop-color:#39A0ED"/>
			<stop  offset="0.5963" style="stop-color:#158CAF"/>
			<stop  offset="0.9944" style="stop-color:#00808A"/>
		</linearGradient>
		<path class="st1" d="M635.4,512.3v3.5h-24.7v-3.5c1.3-0.1,2.3-0.2,3-0.3c0.7-0.1,1.3-0.5,1.8-0.9c0.5-0.5,0.9-1.2,1.2-2.1
			c0.3-1,0.4-2.2,0.4-3.6v-29.8c0-3.9-0.7-6.8-2.1-8.7c-1.4-1.8-3.1-2.8-5.1-2.8c-3.3,0-7.3,2.6-11.9,7.8v34c0,2.5,0.5,4.1,1.4,4.9
			c0.9,0.8,2.7,1.3,5.4,1.5v3.5h-24.9v-3.5c2.3-0.1,3.9-0.4,4.9-1c1-0.6,1.5-2.1,1.5-4.4V445c0-5.8-2.4-9.4-7.1-10.9v-2.6l16.8-6.7
			h2.1v42.8c2.4-2.7,5-4.7,7.9-6.2c2.8-1.4,5.7-2.2,8.5-2.2c3,0,5.5,0.7,7.6,2c2.1,1.3,3.8,3.3,5,5.9c1.2,2.6,1.8,5.8,1.8,9.6V503
			c0,2.5,0.1,4.3,0.2,5.4c0.1,1.1,0.6,2,1.4,2.7c0.8,0.8,2.1,1.1,3.9,1.1H635.4z M587.9,445v60.2c0,1.9-0.1,3.2-0.3,4.2
			c-0.2,0.9-0.6,1.8-1.2,2.6h1.4c0.8,0,1.5-0.5,2.3-1.6c0.8-1.1,1.2-2.6,1.2-4.7v-61.2c0-3-0.3-5.2-0.9-6.8
			c-0.5-1.4-1.4-2.5-2.4-3.3c-1.1-0.8-2.2-1.3-3.5-1.3c-0.5,0-1.5,0.1-2.8,0.4c2.5,1.1,4.1,2.6,4.9,4.4
			C587.5,439.7,587.9,442.1,587.9,445z M618.7,473v33c0,1.6-0.2,2.8-0.5,3.6c-0.3,0.8-0.8,1.6-1.5,2.5c2.2,0,3.6-0.7,4.3-2
			c0.7-1.3,1.1-3.3,1.1-6.1v-27c0-3.3-0.2-5.9-0.6-7.7c-0.4-1.8-1.2-3.3-2.5-4.5c-1.3-1.2-3.3-1.8-6-2
			C616.9,464.6,618.7,468,618.7,473z"/>
		<linearGradient id="SVGID_3_" gradientUnits="userSpaceOnUse" x1="520.8071" y1="470.9487" x2="1171.3018" y2="470.9487">
			<stop  offset="0" style="stop-color:#39A0ED"/>
			<stop  offset="0.5963" style="stop-color:#158CAF"/>
			<stop  offset="0.9944" style="stop-color:#00808A"/>
		</linearGradient>
		<path class="st2" d="M651.4,466.7c0,0.2,0.2,0.8,0.7,1.8c0.4,1.1,0.7,2.1,0.7,3c0,1.8-0.6,3.4-1.8,4.9c-1.2,1.4-2.7,2.1-4.5,2.1
			c-1.7,0-3.1-0.6-4.1-1.7c-1-1.1-1.5-2.4-1.5-3.9c0-2.2,0.8-4.4,2.6-6.5c1.7-2.1,4-3.8,7-5.2c3-1.3,6.3-2,9.9-2
			c2.6,0,5.1,0.6,7.3,1.7c2.3,1.1,4.1,2.9,5.4,5.2c1.3,2.3,2,5.1,2,8.4v32.2c0,2.6,0.6,3.9,1.8,3.9c0.7,0,1.6-0.7,2.6-2.1l1.9,2.7
			c-1.6,2.1-3.2,3.6-4.6,4.7c-1.4,1.1-3.1,1.6-5,1.6c-2.2,0-4-0.6-5.2-1.9c-1.2-1.2-2.1-3.2-2.6-5.8c-4.6,5-9.2,7.6-13.8,7.6
			c-3.2,0-5.8-1.1-7.7-3.2c-1.9-2.1-2.9-4.8-2.9-8.1c0-2.9,0.6-5.4,1.7-7.5c1.2-2.1,2.7-3.9,4.6-5.5c1.9-1.6,4.7-3.6,8.4-6
			c3.7-2.4,6.7-4.5,9.1-6.3v-9.6c0-2.9-0.5-5.1-1.6-6.5c-1-1.5-2.6-2.2-4.7-2.2c-1.8,0-3.2,0.4-4.3,1.2
			C652,464.8,651.4,465.7,651.4,466.7z M654.6,514.5c-3.1,0-5.5-0.8-7.3-2.3c-1.8-1.6-2.8-3.8-2.8-6.8c0-2.2,0.4-4.2,1.3-6.1
			c0.9-1.9,2.2-4.1,4-6.4c-2.7,2-4.8,4-6.3,6.1c-1.5,2.1-2.2,4.5-2.2,7.4c0,2.6,0.9,4.7,2.7,6.4c1.8,1.7,3.8,2.6,5.9,2.6
			C651.9,515.3,653.5,515,654.6,514.5z M649.9,474.5c-1.2,0.1-2.1-0.2-2.8-0.9c-0.6-0.7-1-1.6-1-2.5c0-1.3,0.3-2.5,0.9-3.5
			c0.6-1,1.6-2.5,3-4.5c-2.4,1.5-4.2,3-5.5,4.6c-1.3,1.5-1.9,3.2-1.9,5.1c0,0.8,0.3,1.6,1,2.4c0.7,0.7,1.5,1.1,2.4,1.1
			C647.7,476.2,648.9,475.7,649.9,474.5z M663.5,505.8v-20.4c-4.3,3-7.3,5.8-9,8.3c-1.7,2.5-2.6,5.4-2.6,8.9c0,2.3,0.5,4.1,1.5,5.4
			s2.2,1.9,3.5,1.9C659.1,509.8,661.3,508.5,663.5,505.8z M665.2,475.6v25.1c0,5,0.4,8.6,1.3,11.1c0.8,2.4,2.5,3.6,4.9,3.6
			c1.1,0,2-0.2,2.7-0.5c-2-0.4-3.5-1.4-4.3-3c-0.8-1.6-1.3-4.2-1.3-7.7V475c0-4.4-0.5-7.4-1.5-9.1c-1-1.7-2.7-2.7-5.1-3
			c1.3,0.8,2.2,2.1,2.6,3.7C665,468.1,665.2,471.2,665.2,475.6z"/>
		<linearGradient id="SVGID_4_" gradientUnits="userSpaceOnUse" x1="520.8071" y1="470.9487" x2="1171.3018" y2="470.9487">
			<stop  offset="0" style="stop-color:#39A0ED"/>
			<stop  offset="0.5963" style="stop-color:#158CAF"/>
			<stop  offset="0.9944" style="stop-color:#00808A"/>
		</linearGradient>
		<path class="st3" d="M703.1,459.2v45.9c0,1.9,0.2,3.4,0.5,4.4c0.3,1,0.9,1.7,1.8,2.1c0.9,0.4,2.3,0.6,4.1,0.7v3.5H686v-3.5
			c2.1-0.1,3.5-0.6,4.4-1.6c0.8-1,1.2-2.7,1.2-5.2v-29.1c0-1.8-0.5-3.5-1.5-5.1c-1-1.6-2.4-2.7-4.1-3.5v-2l15.1-6.5H703.1z
			 M693.3,476.6v30.1c0,2.5-0.7,4.3-2.1,5.6c1.9,0,3.2-0.5,4.1-1.6c0.9-1.1,1.3-2.8,1.3-5.2v-29.8c0-2.7-0.5-4.8-1.6-6.3
			c-1-1.5-2.4-2.2-4.1-2.2c-0.8,0-1.4,0-1.9,0.1C691.8,469.3,693.3,472.3,693.3,476.6z M696.9,428.3c1.3,0,2.5,0.4,3.6,1.2
			c1.1,0.8,2,1.9,2.6,3.2c0.6,1.4,1,2.8,1,4.4c0,1.6-0.3,3.1-1,4.5c-0.6,1.4-1.5,2.5-2.6,3.3c-1.1,0.8-2.3,1.2-3.6,1.2
			c-1.9,0-3.6-0.9-4.9-2.7s-2.1-3.9-2.1-6.3c0-1.6,0.3-3,0.9-4.4c0.6-1.4,1.5-2.5,2.6-3.2C694.5,428.7,695.7,428.3,696.9,428.3z
			 M697.8,430.4c-2,0-3.5,0.6-4.6,1.8c-1.1,1.2-1.6,2.8-1.6,4.9c0,2,0.5,3.6,1.6,4.9c1,1.3,2.6,2,4.6,2.1c-1.1-1.2-1.9-2.3-2.4-3.3
			c-0.5-1-0.8-2.2-0.8-3.6C694.7,434.4,695.7,432.1,697.8,430.4z"/>
		<linearGradient id="SVGID_5_" gradientUnits="userSpaceOnUse" x1="520.8071" y1="470.9487" x2="1171.3018" y2="470.9487">
			<stop  offset="0" style="stop-color:#39A0ED"/>
			<stop  offset="0.5963" style="stop-color:#158CAF"/>
			<stop  offset="0.9944" style="stop-color:#00808A"/>
		</linearGradient>
		<path class="st4" d="M741.4,470.7c0-3.8,0.3-7.4,0.9-10.9c0.6-3.4,1.4-6.7,2.5-9.8c1.1-3.1,2.5-6,4.2-8.7c1.7-2.7,3.5-5.1,5.6-7.2
			c2.2-2.2,4.5-4.1,7.1-5.5c2.5-1.4,5.3-2.5,8.2-3.1c2.9-0.7,6.1-1,9.5-1c5.7,0,10.8,1.2,15.5,3.6c4.7,2.4,8.7,5.8,11.9,10
			c3.3,4.3,5.8,9.2,7.5,14.8c1.8,5.6,2.6,11.4,2.6,17.6c0,6.6-1,12.8-2.9,18.6c-1.9,5.7-4.7,10.7-8.2,15c-3.6,4.3-7.7,7.6-12.5,9.9
			c-4.8,2.3-9.9,3.5-15.5,3.5c-5.2,0-10-1.2-14.5-3.5c-4.5-2.3-8.4-5.5-11.6-9.7c-3.2-4.1-5.8-9.1-7.5-14.9
			C742.3,483.7,741.4,477.4,741.4,470.7z M760.2,431.6c-5.6,4.3-9.8,9.8-12.7,16.5c-2.9,6.7-4.3,14.3-4.3,22.7
			c0,7,0.9,13.4,2.8,19.1c1.9,5.8,4.7,10.7,8.3,14.8c3.7,4.1,8.2,7.3,13.6,9.6c-6.6-4.2-11.9-10-15.8-17.5
			c-3.9-7.4-5.9-16.5-5.9-27.2c0-5.4,0.5-10.2,1.5-14.5c1-4.3,2.6-8.4,4.6-12.2C754.5,439.1,757.1,435.3,760.2,431.6z M755.4,463.9
			c0,7.4,0.6,14.1,1.8,20.3c1.2,6.2,2.9,11.5,5.2,16c2.3,4.5,4.9,7.9,8,10.2c3.1,2.3,6.4,3.5,10,3.5c3,0,5.9-0.8,8.6-2.4
			c2.7-1.6,5.1-4.1,7.1-7.3c2.1-3.3,3.6-7.3,4.8-12.1c1.1-4.8,1.7-10.4,1.7-16.7c0-6.9-0.6-13.4-1.9-19.3c-1.3-5.9-3.1-10.9-5.4-15
			c-2.3-4.1-5-7.3-8.2-9.6c-3.1-2.3-6.5-3.4-10.1-3.4c-3.1,0-6,0.8-8.7,2.5c-2.7,1.7-5,4.1-6.9,7.3c-1.9,3.2-3.4,6.9-4.4,11.3
			C755.9,453.6,755.4,458.5,755.4,463.9z M786.5,429c3.8,2.5,7,6,9.7,10.5c2.7,4.5,4.7,9.8,6,16c1.3,6.2,2,13.1,2,20.5
			c0,7.1-0.8,13.2-2.3,18.4c-1.5,5.2-3.7,9.8-6.5,13.7c2.8-2.6,5.1-5.6,6.8-8.9c1.8-3.3,3.1-7.1,3.9-11.3c0.8-4.2,1.3-9,1.3-14.2
			c0-7.6-0.8-14.5-2.5-20.9s-4.1-11.6-7.3-15.8C794.6,432.8,790.8,430.2,786.5,429z"/>
		<linearGradient id="SVGID_6_" gradientUnits="userSpaceOnUse" x1="520.8071" y1="470.9487" x2="1171.3018" y2="470.9487">
			<stop  offset="0" style="stop-color:#39A0ED"/>
			<stop  offset="0.5963" style="stop-color:#158CAF"/>
			<stop  offset="0.9944" style="stop-color:#00808A"/>
		</linearGradient>
		<path class="st5" d="M853.3,464.1v-3.7h18.1v43.2c0,1.7,0.2,3,0.7,3.9c0.5,0.8,1.2,1.4,2.1,1.6c0.9,0.3,2.1,0.4,3.6,0.4h0.5v3.6
			l-18.4,4.4v-8.8c-5.6,5.8-11.1,8.8-16.6,8.8c-4.3,0-7.7-1.6-10.3-4.8c-2.6-3.2-3.8-7.8-3.8-13.6v-22.1c0-3.3-0.1-5.6-0.3-7
			c-0.2-1.4-0.7-2.6-1.7-3.6c-1-1-2.6-1.8-4.8-2.2v-3.7h18.5v37.5c0,3.2,0.2,5.8,0.7,7.8c0.5,2,1.2,3.5,2.3,4.5
			c1.1,1,2.4,1.5,4.2,1.5c3.7,0,7.7-2.3,11.9-7v-30.4C859.8,467.8,857.7,464.4,853.3,464.1z M834.2,500.3v-28.6
			c0-5.3-1.6-7.9-4.9-7.9c-0.1,0-0.4,0-0.9,0.1c-0.5,0.1-0.8,0.1-0.9,0.1c1.4,1.4,2.3,2.8,2.7,4.4c0.4,1.6,0.6,3.5,0.6,5.9v23.5
			c0,5.6,1.1,10,3.2,13.1c2.1,3.2,5.1,4.7,8.8,4.7c1.1,0,2.1-0.1,3.1-0.3c-3.8-0.4-6.7-1.9-8.7-4.4
			C835.2,508.4,834.2,504.8,834.2,500.3z M864.8,507.6v-34.1c0-3-0.3-5.3-1-7.1c-0.6-1.8-2-2.6-4.2-2.6c-0.1,0-0.3,0-0.8,0.1
			c-0.4,0.1-0.7,0.1-0.8,0.1c1.3,1.1,2.3,2.4,2.7,4c0.5,1.6,0.7,3.6,0.7,6.1v40.2c1.2-0.5,2-1.3,2.5-2.3
			C864.5,511.1,864.8,509.6,864.8,507.6z"/>
		<linearGradient id="SVGID_7_" gradientUnits="userSpaceOnUse" x1="520.8071" y1="470.9487" x2="1171.3018" y2="470.9487">
			<stop  offset="0" style="stop-color:#39A0ED"/>
			<stop  offset="0.5963" style="stop-color:#158CAF"/>
			<stop  offset="0.9944" style="stop-color:#00808A"/>
		</linearGradient>
		<path class="st6" d="M895,466.7c0,0.2,0.2,0.8,0.7,1.8c0.4,1.1,0.7,2.1,0.7,3c0,1.8-0.6,3.4-1.8,4.9c-1.2,1.4-2.7,2.1-4.5,2.1
			c-1.7,0-3.1-0.6-4.1-1.7c-1-1.1-1.5-2.4-1.5-3.9c0-2.2,0.8-4.4,2.6-6.5c1.7-2.1,4-3.8,7-5.2c3-1.3,6.3-2,9.9-2
			c2.6,0,5.1,0.6,7.3,1.7c2.3,1.1,4.1,2.9,5.4,5.2c1.3,2.3,2,5.1,2,8.4v32.2c0,2.6,0.6,3.9,1.8,3.9c0.7,0,1.6-0.7,2.6-2.1l1.9,2.7
			c-1.6,2.1-3.2,3.6-4.6,4.7c-1.4,1.1-3.1,1.6-5,1.6c-2.2,0-4-0.6-5.2-1.9c-1.2-1.2-2.1-3.2-2.6-5.8c-4.6,5-9.2,7.6-13.8,7.6
			c-3.2,0-5.8-1.1-7.7-3.2c-1.9-2.1-2.9-4.8-2.9-8.1c0-2.9,0.6-5.4,1.7-7.5c1.2-2.1,2.7-3.9,4.6-5.5c1.9-1.6,4.7-3.6,8.4-6
			c3.7-2.4,6.7-4.5,9.1-6.3v-9.6c0-2.9-0.5-5.1-1.6-6.5c-1-1.5-2.6-2.2-4.7-2.2c-1.8,0-3.2,0.4-4.3,1.2
			C895.5,464.8,895,465.7,895,466.7z M898.2,514.5c-3.1,0-5.5-0.8-7.3-2.3c-1.8-1.6-2.8-3.8-2.8-6.8c0-2.2,0.4-4.2,1.3-6.1
			c0.9-1.9,2.2-4.1,4-6.4c-2.7,2-4.8,4-6.3,6.1c-1.5,2.1-2.2,4.5-2.2,7.4c0,2.6,0.9,4.7,2.7,6.4c1.8,1.7,3.8,2.6,5.9,2.6
			C895.5,515.3,897.1,515,898.2,514.5z M893.5,474.5c-1.2,0.1-2.1-0.2-2.8-0.9c-0.6-0.7-1-1.6-1-2.5c0-1.3,0.3-2.5,0.9-3.5
			c0.6-1,1.6-2.5,3-4.5c-2.4,1.5-4.2,3-5.5,4.6c-1.3,1.5-1.9,3.2-1.9,5.1c0,0.8,0.3,1.6,1,2.4c0.7,0.7,1.5,1.1,2.4,1.1
			C891.2,476.2,892.5,475.7,893.5,474.5z M907.1,505.8v-20.4c-4.3,3-7.3,5.8-9,8.3c-1.7,2.5-2.6,5.4-2.6,8.9c0,2.3,0.5,4.1,1.5,5.4
			s2.2,1.9,3.5,1.9C902.7,509.8,904.9,508.5,907.1,505.8z M908.8,475.6v25.1c0,5,0.4,8.6,1.3,11.1c0.8,2.4,2.5,3.6,4.9,3.6
			c1.1,0,2-0.2,2.7-0.5c-2-0.4-3.5-1.4-4.3-3c-0.8-1.6-1.3-4.2-1.3-7.7V475c0-4.4-0.5-7.4-1.5-9.1c-1-1.7-2.7-2.7-5.1-3
			c1.3,0.8,2.2,2.1,2.6,3.7C908.6,468.1,908.8,471.2,908.8,475.6z"/>
		<linearGradient id="SVGID_8_" gradientUnits="userSpaceOnUse" x1="520.8071" y1="470.9487" x2="1171.3018" y2="470.9487">
			<stop  offset="0" style="stop-color:#39A0ED"/>
			<stop  offset="0.5963" style="stop-color:#158CAF"/>
			<stop  offset="0.9944" style="stop-color:#00808A"/>
		</linearGradient>
		<path class="st7" d="M952.8,515.8h-23.4v-3.5h0.8c1.9,0,3.2-0.4,4-1.1c0.8-0.8,1.3-1.7,1.4-2.7c0.1-1.1,0.2-2.7,0.2-4.9v-58.2
			c0-3.2-0.4-5.7-1.3-7.6c-0.9-1.9-2.5-3.3-5-4.2v-2.5l16.1-6.8h2v65.5c7.9-9.6,11.9-16.3,11.9-20.1c0-1.5-0.5-2.8-1.4-3.8
			c-0.9-1-2.4-1.6-4.3-1.9v-3.6h21.5v3.6c-0.3,0.1-0.8,0.2-1.4,0.4c-0.6,0.2-1.3,0.5-1.9,0.8c-0.7,0.3-1.4,0.8-2.2,1.4
			c-0.8,0.6-1.6,1.5-2.6,2.7c-1.7,2.2-2.6,3.4-2.7,3.6l-3.3,5.3l8.4,20.2c1.8,4.1,3.3,7.3,4.8,9.5c1.4,2.2,3,3.7,4.7,4.4v3.5h-21.5
			v-3.5c2.3-0.4,3.4-1.4,3.4-3c0-0.5-0.1-1-0.4-1.6c-0.2-0.6-0.7-1.6-1.4-3.2l-6.7-15.7l-4.8,5.8v12.2c0,3.5,1.8,5.3,5.4,5.5V515.8z
			 M940.8,505.4v-59c0-3.7-0.2-6.5-0.5-8.4c-0.4-1.9-1.2-3.4-2.4-4.3c-1.3-1-3.3-1.3-6.2-1.2c2.3,1.2,3.8,2.8,4.5,4.7
			s1.2,4.5,1.2,7.8v59.9c0,2.1-0.1,3.6-0.4,4.7c-0.3,1.1-0.9,2.1-1.9,3.1C938.9,512.5,940.8,510.1,940.8,505.4z M963.2,501
			l-7.2-16.9l-2.4,3l7.4,17.8c0.2,0.5,0.5,1,0.7,1.4c0.2,0.4,0.4,0.9,0.6,1.4c0.2,0.5,0.3,1,0.3,1.5c0,0.9-0.5,2-1.5,3.1
			c1.4,0,2.5-0.5,3.2-1.3c0.7-0.8,1.1-1.9,1.1-3.2C965.3,506.6,964.6,504.3,963.2,501z M967.2,463.8h-8.9c1.7,1.6,2.6,3.5,2.6,5.7
			c0,0.9-0.2,2-0.6,3.2C963,468.3,965.3,465.3,967.2,463.8z"/>
		<linearGradient id="SVGID_9_" gradientUnits="userSpaceOnUse" x1="520.8071" y1="470.9487" x2="1171.3018" y2="470.9487">
			<stop  offset="0" style="stop-color:#39A0ED"/>
			<stop  offset="0.5963" style="stop-color:#158CAF"/>
			<stop  offset="0.9944" style="stop-color:#00808A"/>
		</linearGradient>
		<path class="st8" d="M1000.9,459.2v8.4c2.8-2.7,5.4-4.8,7.9-6.3c2.4-1.4,5.3-2.2,8.6-2.2c9.5,0,14.3,5.9,14.3,17.8V506
			c0,2.8,0.5,4.5,1.6,5.2c1,0.7,2.6,1.1,4.7,1.1v3.5h-24.3v-3.5c2.2,0,3.7-0.4,4.7-1.3c1-0.9,1.5-2.7,1.5-5.5v-30.7
			c0-2.2-0.3-4.1-0.8-5.7c-0.6-1.5-1.4-2.7-2.4-3.5c-1.1-0.8-2.4-1.2-3.9-1.2c-1.9,0-3.8,0.6-5.6,1.9c-1.8,1.2-3.9,3.1-6.1,5.7v33.5
			c0,1.9,0.3,3.4,0.8,4.4c0.5,1,1.2,1.6,2,1.9s2.1,0.4,3.7,0.5v3.5h-24.4v-3.5c2.1,0,3.6-0.3,4.7-1c1.1-0.7,1.7-2.3,1.7-4.8v-28.1
			c0-2.8-0.5-5-1.5-6.8c-1-1.7-2.6-3-4.9-3.9v-2.1l16-6.3H1000.9z M991.1,476.2v29.1c0,1.9-0.1,3.3-0.3,4.1
			c-0.2,0.8-0.7,1.8-1.4,2.8c3.3-0.4,4.9-2.7,4.9-6.9v-30.3c0-2.1-0.6-3.9-1.8-5.4c-1.2-1.5-2.6-2.3-4.2-2.3c-0.2,0-0.5,0-0.9,0.1
			c-0.4,0.1-0.7,0.1-0.9,0.1C989.6,469.4,991.1,472.3,991.1,476.2z M1021.5,474.2v31.3c0,1.3,0,2.3-0.1,2.9
			c-0.1,0.6-0.2,1.2-0.4,1.8s-0.6,1.3-1.3,2.1h1c1.8,0,2.9-0.8,3.5-2.4c0.6-1.6,0.9-4.1,0.9-7.3v-28.1c0-3.6-0.6-6.4-1.9-8.3
			s-3.5-2.9-6.8-3.1c1.8,0.9,3.1,2.3,3.9,4C1021.1,468.8,1021.5,471.2,1021.5,474.2z"/>
		<linearGradient id="SVGID_10_" gradientUnits="userSpaceOnUse" x1="520.8071" y1="470.9487" x2="1171.3018" y2="470.9487">
			<stop  offset="0" style="stop-color:#39A0ED"/>
			<stop  offset="0.5963" style="stop-color:#158CAF"/>
			<stop  offset="0.9944" style="stop-color:#00808A"/>
		</linearGradient>
		<path class="st9" d="M1059.9,459.2v45.9c0,1.9,0.2,3.4,0.5,4.4c0.3,1,0.9,1.7,1.8,2.1c0.9,0.4,2.3,0.6,4.1,0.7v3.5h-23.6v-3.5
			c2.1-0.1,3.5-0.6,4.4-1.6c0.8-1,1.2-2.7,1.2-5.2v-29.1c0-1.8-0.5-3.5-1.5-5.1c-1-1.6-2.4-2.7-4.1-3.5v-2l15.1-6.5H1059.9z
			 M1050,476.6v30.1c0,2.5-0.7,4.3-2.1,5.6c1.9,0,3.2-0.5,4.1-1.6c0.9-1.1,1.3-2.8,1.3-5.2v-29.8c0-2.7-0.5-4.8-1.6-6.3
			c-1-1.5-2.4-2.2-4.1-2.2c-0.8,0-1.4,0-1.9,0.1C1048.6,469.3,1050,472.3,1050,476.6z M1053.7,428.3c1.3,0,2.5,0.4,3.6,1.2
			c1.1,0.8,2,1.9,2.6,3.2c0.6,1.4,1,2.8,1,4.4c0,1.6-0.3,3.1-1,4.5c-0.6,1.4-1.5,2.5-2.6,3.3c-1.1,0.8-2.3,1.2-3.6,1.2
			c-1.9,0-3.6-0.9-4.9-2.7c-1.4-1.8-2.1-3.9-2.1-6.3c0-1.6,0.3-3,0.9-4.4c0.6-1.4,1.5-2.5,2.6-3.2
			C1051.3,428.7,1052.4,428.3,1053.7,428.3z M1054.6,430.4c-2,0-3.5,0.6-4.6,1.8c-1.1,1.2-1.6,2.8-1.6,4.9c0,2,0.5,3.6,1.6,4.9
			c1,1.3,2.6,2,4.6,2.1c-1.1-1.2-1.9-2.3-2.4-3.3c-0.5-1-0.8-2.2-0.8-3.6C1051.4,434.4,1052.5,432.1,1054.6,430.4z"/>
		<linearGradient id="SVGID_11_" gradientUnits="userSpaceOnUse" x1="520.8071" y1="470.9487" x2="1171.3018" y2="470.9487">
			<stop  offset="0" style="stop-color:#39A0ED"/>
			<stop  offset="0.5963" style="stop-color:#158CAF"/>
			<stop  offset="0.9944" style="stop-color:#00808A"/>
		</linearGradient>
		<path class="st10" d="M1088.2,459.2v8.4c2.8-2.7,5.4-4.8,7.9-6.3c2.4-1.4,5.3-2.2,8.6-2.2c9.5,0,14.3,5.9,14.3,17.8V506
			c0,2.8,0.5,4.5,1.6,5.2c1,0.7,2.6,1.1,4.7,1.1v3.5H1101v-3.5c2.2,0,3.7-0.4,4.7-1.3c1-0.9,1.5-2.7,1.5-5.5v-30.7
			c0-2.2-0.3-4.1-0.8-5.7c-0.6-1.5-1.4-2.7-2.4-3.5c-1.1-0.8-2.4-1.2-3.9-1.2c-1.9,0-3.8,0.6-5.6,1.9c-1.8,1.2-3.9,3.1-6.1,5.7v33.5
			c0,1.9,0.3,3.4,0.8,4.4c0.5,1,1.2,1.6,2,1.9s2.1,0.4,3.7,0.5v3.5h-24.4v-3.5c2.1,0,3.6-0.3,4.7-1c1.1-0.7,1.7-2.3,1.7-4.8v-28.1
			c0-2.8-0.5-5-1.5-6.8c-1-1.7-2.6-3-4.9-3.9v-2.1l16-6.3H1088.2z M1078.4,476.2v29.1c0,1.9-0.1,3.3-0.3,4.1
			c-0.2,0.8-0.7,1.8-1.4,2.8c3.3-0.4,4.9-2.7,4.9-6.9v-30.3c0-2.1-0.6-3.9-1.8-5.4c-1.2-1.5-2.6-2.3-4.2-2.3c-0.2,0-0.5,0-0.9,0.1
			c-0.4,0.1-0.7,0.1-0.9,0.1C1076.9,469.4,1078.4,472.3,1078.4,476.2z M1108.8,474.2v31.3c0,1.3,0,2.3-0.1,2.9
			c-0.1,0.6-0.2,1.2-0.4,1.8s-0.6,1.3-1.3,2.1h1c1.8,0,2.9-0.8,3.5-2.4c0.6-1.6,0.9-4.1,0.9-7.3v-28.1c0-3.6-0.6-6.4-1.9-8.3
			s-3.5-2.9-6.8-3.1c1.8,0.9,3.1,2.3,3.9,4C1108.4,468.8,1108.8,471.2,1108.8,474.2z"/>
		<linearGradient id="SVGID_12_" gradientUnits="userSpaceOnUse" x1="520.8071" y1="470.9487" x2="1171.3018" y2="470.9487">
			<stop  offset="0" style="stop-color:#39A0ED"/>
			<stop  offset="0.5963" style="stop-color:#158CAF"/>
			<stop  offset="0.9944" style="stop-color:#00808A"/>
		</linearGradient>
		<path class="st11" d="M1169.3,500l2,2c-1.5,3.6-3.3,6.5-5.4,8.8c-2.1,2.3-4.4,4-6.9,5.1s-5.1,1.6-7.9,1.6c-3.7,0-7.1-1.1-10.3-3.4
			c-3.2-2.2-5.7-5.5-7.5-9.7c-1.9-4.2-2.8-9-2.8-14.4c0-4.2,0.6-8.2,1.7-11.9c1.1-3.7,2.7-7,4.7-9.8c2-2.8,4.3-5,7-6.6
			c2.6-1.6,5.5-2.4,8.5-2.4c3,0,5.9,0.8,8.7,2.4c2.7,1.6,4.9,3.8,6.5,6.6c1.2,2,2,4.1,2.5,6.3c0.5,2.1,0.9,4.7,1.2,7.7h-30.5
			c0.1,4.4,0.7,8.1,1.8,11.2c1.1,3,2.4,5.5,4.1,7.4c1.7,1.9,3.5,3.2,5.4,4c1.9,0.8,3.8,1.2,5.5,1.2
			C1161.9,505.9,1165.8,503.9,1169.3,500z M1141.6,465.6c-6.3,6.3-9.4,14.5-9.4,24.6c0,7.4,1.9,13.4,5.6,18.1c3.8,4.7,8.1,7,13,7
			c2.9,0,5.7-0.7,8.6-2.2c2.9-1.5,5.3-3.6,7.3-6.5c-2.1,1.6-4.1,3-6.3,4c-2.1,1-4.7,1.6-7.7,1.6c-5,0-9.2-2.2-12.5-6.6
			c-3.4-4.4-5-10.1-5-17.2c0-4.5,0.6-8.5,1.7-12.1C1137.9,472.8,1139.5,469.2,1141.6,465.6z M1141.1,478.1h17.6V476
			c0-2.5-0.4-4.6-1.1-6.6c-0.7-1.9-1.7-3.4-2.9-4.4c-1.2-1-2.6-1.6-4.2-1.6c-2.6,0-4.7,1.4-6.5,4.3
			C1142.2,470.6,1141.3,474,1141.1,478.1z M1160.3,478.1h3.5c-0.1-4.7-0.9-8.2-2.3-10.5c-1.4-2.3-3.9-3.8-7.3-4.5
			c2.2,1.2,3.7,2.8,4.6,4.8c0.9,2,1.4,5,1.4,9V478.1z"/>
	</g>
	<g>
		<linearGradient id="SVGID_13_" gradientUnits="userSpaceOnUse" x1="520.8071" y1="470.9487" x2="1171.3018" y2="470.9487">
			<stop  offset="0" style="stop-color:#397DED"/>
			<stop  offset="0.4756" style="stop-color:#26A1C8"/>
			<stop  offset="0.9944" style="stop-color:#13C4A3"/>
		</linearGradient>
		<path class="st12" d="M521.6,483.5h3.3c1.9,6.7,4.1,12.3,6.7,16.8c2.6,4.5,5.5,7.9,8.5,10.1c3.1,2.2,6.3,3.3,9.7,3.3
			c4.2,0,7.8-1.6,10.8-5c3-3.3,4.5-7.5,4.5-12.7c0-4.8-1-8.6-3-11.3c-2-2.7-4.4-4.6-7.1-5.6c-2.8-1.1-6.4-2.1-10.9-3
			c-4.5-0.9-7.7-1.8-9.6-2.6c-2.9-1.3-5.4-3-7.5-5.2c-2.1-2.2-3.6-4.9-4.7-8c-1.1-3.1-1.6-6.4-1.6-10c0-3.4,0.5-6.6,1.4-9.8
			c0.9-3.1,2.3-5.9,4-8.3c1.7-2.4,3.8-4.3,6.3-5.7c2.5-1.4,5.2-2.1,8.3-2.1c2.2,0,4.9,0.4,8.1,1.2c3.2,0.8,5.5,1.2,6.9,1.2
			c1.8,0,3.5-0.5,5.2-1.5h3.8l2.2,26.1h-3.5c-3.3-7.8-6.8-13.7-10.4-17.8c-3.6-4.1-7.9-6.1-12.8-6.1c-2.4,0-4.7,0.7-6.8,2.1
			c-2.1,1.4-3.8,3.4-5,5.9c-1.3,2.5-1.9,5.2-1.9,8.3c0,4.2,1.1,7.5,3.4,9.7c2.3,2.2,5.7,3.9,10.2,5.1c4.5,1.1,8.5,2.1,12.1,2.9
			c3.6,0.8,6.4,1.8,8.5,3.1c3.8,2.4,6.8,5.6,8.9,9.8c2.1,4.2,3.2,8.9,3.2,14.2c0,5.1-1,9.8-2.9,14.2c-2,4.4-4.7,7.9-8.2,10.6
			s-7.5,4-11.8,4c-2.5,0-4.3-0.2-5.6-0.7c-1.2-0.5-3.4-1.4-6.4-2.7c-3-1.4-5.4-2-7-2c-2.7,0-4.8,1.3-6.4,3.9h-2.9V483.5z M523.3,443
			c-0.6,3.2-0.9,5.8-0.9,7.8c0,2.2,0.3,4.5,0.9,6.8c0.6,2.3,1.5,4.4,2.7,6.4c1.2,2,2.5,3.6,4,4.9c2,1.7,4.2,2.9,6.6,3.6
			c2.4,0.7,5.9,1.5,10.5,2.5c4.6,1,7.8,1.9,9.5,2.8c3.2,1.5,5.7,3.7,7.5,6.8c1.8,3,2.7,6.6,2.7,10.7c0,3-0.7,6.3-2.1,9.6
			c2.8-3.6,4.1-7.8,4.1-12.6c0-5-1-8.9-3.1-11.8c-2-2.9-4.6-5-7.6-6.3c-3-1.4-7.1-2.6-12.3-3.8c-5.2-1.2-7.9-1.8-8-1.8
			c-4.8-1.6-8.4-4.3-10.9-8.1c-2.5-3.8-3.7-8.3-3.7-13.3c0-0.9,0-1.7,0-2.3C523.2,444.1,523.2,443.5,523.3,443z M523.3,495.3v16.9
			c1-1.6,1.9-2.6,2.7-3.1c0.8-0.5,2.1-0.7,3.8-0.6c-1.1-1.7-1.9-2.9-2.4-3.6c-0.5-0.8-1.1-1.9-1.8-3.5
			C524.9,499.9,524.1,497.9,523.3,495.3z M561.4,442.5l-1.7-12.1c-1.1,0.5-2.2,0.7-3.3,0.7c-1.2,0-2.5-0.2-3.9-0.7
			c1.3,1.1,2.5,2.3,3.5,3.7c1,1.4,2.1,3,3.2,4.9S561,442,561.4,442.5z"/>
		<linearGradient id="SVGID_14_" gradientUnits="userSpaceOnUse" x1="520.8071" y1="470.9487" x2="1171.3018" y2="470.9487">
			<stop  offset="0" style="stop-color:#397DED"/>
			<stop  offset="0.4756" style="stop-color:#26A1C8"/>
			<stop  offset="0.9944" style="stop-color:#13C4A3"/>
		</linearGradient>
		<path class="st13" d="M635.4,512.3v3.5h-24.7v-3.5c1.3-0.1,2.3-0.2,3-0.3c0.7-0.1,1.3-0.5,1.8-0.9c0.5-0.5,0.9-1.2,1.2-2.1
			c0.3-1,0.4-2.2,0.4-3.6v-29.8c0-3.9-0.7-6.8-2.1-8.7c-1.4-1.8-3.1-2.8-5.1-2.8c-3.3,0-7.3,2.6-11.9,7.8v34c0,2.5,0.5,4.1,1.4,4.9
			c0.9,0.8,2.7,1.3,5.4,1.5v3.5h-24.9v-3.5c2.3-0.1,3.9-0.4,4.9-1c1-0.6,1.5-2.1,1.5-4.4V445c0-5.8-2.4-9.4-7.1-10.9v-2.6l16.8-6.7
			h2.1v42.8c2.4-2.7,5-4.7,7.9-6.2c2.8-1.4,5.7-2.2,8.5-2.2c3,0,5.5,0.7,7.6,2c2.1,1.3,3.8,3.3,5,5.9c1.2,2.6,1.8,5.8,1.8,9.6V503
			c0,2.5,0.1,4.3,0.2,5.4c0.1,1.1,0.6,2,1.4,2.7c0.8,0.8,2.1,1.1,3.9,1.1H635.4z M587.9,445v60.2c0,1.9-0.1,3.2-0.3,4.2
			c-0.2,0.9-0.6,1.8-1.2,2.6h1.4c0.8,0,1.5-0.5,2.3-1.6c0.8-1.1,1.2-2.6,1.2-4.7v-61.2c0-3-0.3-5.2-0.9-6.8
			c-0.5-1.4-1.4-2.5-2.4-3.3c-1.1-0.8-2.2-1.3-3.5-1.3c-0.5,0-1.5,0.1-2.8,0.4c2.5,1.1,4.1,2.6,4.9,4.4
			C587.5,439.7,587.9,442.1,587.9,445z M618.7,473v33c0,1.6-0.2,2.8-0.5,3.6c-0.3,0.8-0.8,1.6-1.5,2.5c2.2,0,3.6-0.7,4.3-2
			c0.7-1.3,1.1-3.3,1.1-6.1v-27c0-3.3-0.2-5.9-0.6-7.7c-0.4-1.8-1.2-3.3-2.5-4.5c-1.3-1.2-3.3-1.8-6-2
			C616.9,464.6,618.7,468,618.7,473z"/>
		<linearGradient id="SVGID_15_" gradientUnits="userSpaceOnUse" x1="520.8071" y1="470.9487" x2="1171.3018" y2="470.9487">
			<stop  offset="0" style="stop-color:#397DED"/>
			<stop  offset="0.4756" style="stop-color:#26A1C8"/>
			<stop  offset="0.9944" style="stop-color:#13C4A3"/>
		</linearGradient>
		<path class="st14" d="M651.4,466.7c0,0.2,0.2,0.8,0.7,1.8c0.4,1.1,0.7,2.1,0.7,3c0,1.8-0.6,3.4-1.8,4.9c-1.2,1.4-2.7,2.1-4.5,2.1
			c-1.7,0-3.1-0.6-4.1-1.7c-1-1.1-1.5-2.4-1.5-3.9c0-2.2,0.8-4.4,2.6-6.5c1.7-2.1,4-3.8,7-5.2c3-1.3,6.3-2,9.9-2
			c2.6,0,5.1,0.6,7.3,1.7c2.3,1.1,4.1,2.9,5.4,5.2c1.3,2.3,2,5.1,2,8.4v32.2c0,2.6,0.6,3.9,1.8,3.9c0.7,0,1.6-0.7,2.6-2.1l1.9,2.7
			c-1.6,2.1-3.2,3.6-4.6,4.7c-1.4,1.1-3.1,1.6-5,1.6c-2.2,0-4-0.6-5.2-1.9c-1.2-1.2-2.1-3.2-2.6-5.8c-4.6,5-9.2,7.6-13.8,7.6
			c-3.2,0-5.8-1.1-7.7-3.2c-1.9-2.1-2.9-4.8-2.9-8.1c0-2.9,0.6-5.4,1.7-7.5c1.2-2.1,2.7-3.9,4.6-5.5c1.9-1.6,4.7-3.6,8.4-6
			c3.7-2.4,6.7-4.5,9.1-6.3v-9.6c0-2.9-0.5-5.1-1.6-6.5c-1-1.5-2.6-2.2-4.7-2.2c-1.8,0-3.2,0.4-4.3,1.2
			C652,464.8,651.4,465.7,651.4,466.7z M654.6,514.5c-3.1,0-5.5-0.8-7.3-2.3c-1.8-1.6-2.8-3.8-2.8-6.8c0-2.2,0.4-4.2,1.3-6.1
			c0.9-1.9,2.2-4.1,4-6.4c-2.7,2-4.8,4-6.3,6.1c-1.5,2.1-2.2,4.5-2.2,7.4c0,2.6,0.9,4.7,2.7,6.4c1.8,1.7,3.8,2.6,5.9,2.6
			C651.9,515.3,653.5,515,654.6,514.5z M649.9,474.5c-1.2,0.1-2.1-0.2-2.8-0.9c-0.6-0.7-1-1.6-1-2.5c0-1.3,0.3-2.5,0.9-3.5
			c0.6-1,1.6-2.5,3-4.5c-2.4,1.5-4.2,3-5.5,4.6c-1.3,1.5-1.9,3.2-1.9,5.1c0,0.8,0.3,1.6,1,2.4c0.7,0.7,1.5,1.1,2.4,1.1
			C647.7,476.2,648.9,475.7,649.9,474.5z M663.5,505.8v-20.4c-4.3,3-7.3,5.8-9,8.3c-1.7,2.5-2.6,5.4-2.6,8.9c0,2.3,0.5,4.1,1.5,5.4
			s2.2,1.9,3.5,1.9C659.1,509.8,661.3,508.5,663.5,505.8z M665.2,475.6v25.1c0,5,0.4,8.6,1.3,11.1c0.8,2.4,2.5,3.6,4.9,3.6
			c1.1,0,2-0.2,2.7-0.5c-2-0.4-3.5-1.4-4.3-3c-0.8-1.6-1.3-4.2-1.3-7.7V475c0-4.4-0.5-7.4-1.5-9.1c-1-1.7-2.7-2.7-5.1-3
			c1.3,0.8,2.2,2.1,2.6,3.7C665,468.1,665.2,471.2,665.2,475.6z"/>
		<linearGradient id="SVGID_16_" gradientUnits="userSpaceOnUse" x1="520.8071" y1="470.9487" x2="1171.3018" y2="470.9487">
			<stop  offset="0" style="stop-color:#397DED"/>
			<stop  offset="0.4756" style="stop-color:#26A1C8"/>
			<stop  offset="0.9944" style="stop-color:#13C4A3"/>
		</linearGradient>
		<path class="st15" d="M703.1,459.2v45.9c0,1.9,0.2,3.4,0.5,4.4c0.3,1,0.9,1.7,1.8,2.1c0.9,0.4,2.3,0.6,4.1,0.7v3.5H686v-3.5
			c2.1-0.1,3.5-0.6,4.4-1.6c0.8-1,1.2-2.7,1.2-5.2v-29.1c0-1.8-0.5-3.5-1.5-5.1c-1-1.6-2.4-2.7-4.1-3.5v-2l15.1-6.5H703.1z
			 M693.3,476.6v30.1c0,2.5-0.7,4.3-2.1,5.6c1.9,0,3.2-0.5,4.1-1.6c0.9-1.1,1.3-2.8,1.3-5.2v-29.8c0-2.7-0.5-4.8-1.6-6.3
			c-1-1.5-2.4-2.2-4.1-2.2c-0.8,0-1.4,0-1.9,0.1C691.8,469.3,693.3,472.3,693.3,476.6z M696.9,428.3c1.3,0,2.5,0.4,3.6,1.2
			c1.1,0.8,2,1.9,2.6,3.2c0.6,1.4,1,2.8,1,4.4c0,1.6-0.3,3.1-1,4.5c-0.6,1.4-1.5,2.5-2.6,3.3c-1.1,0.8-2.3,1.2-3.6,1.2
			c-1.9,0-3.6-0.9-4.9-2.7s-2.1-3.9-2.1-6.3c0-1.6,0.3-3,0.9-4.4c0.6-1.4,1.5-2.5,2.6-3.2C694.5,428.7,695.7,428.3,696.9,428.3z
			 M697.8,430.4c-2,0-3.5,0.6-4.6,1.8c-1.1,1.2-1.6,2.8-1.6,4.9c0,2,0.5,3.6,1.6,4.9c1,1.3,2.6,2,4.6,2.1c-1.1-1.2-1.9-2.3-2.4-3.3
			c-0.5-1-0.8-2.2-0.8-3.6C694.7,434.4,695.7,432.1,697.8,430.4z"/>
		<linearGradient id="SVGID_17_" gradientUnits="userSpaceOnUse" x1="520.8071" y1="470.9487" x2="1171.3018" y2="470.9487">
			<stop  offset="0" style="stop-color:#397DED"/>
			<stop  offset="0.4756" style="stop-color:#26A1C8"/>
			<stop  offset="0.9944" style="stop-color:#13C4A3"/>
		</linearGradient>
		<path class="st16" d="M741.4,470.7c0-3.8,0.3-7.4,0.9-10.9c0.6-3.4,1.4-6.7,2.5-9.8c1.1-3.1,2.5-6,4.2-8.7
			c1.7-2.7,3.5-5.1,5.6-7.2c2.2-2.2,4.5-4.1,7.1-5.5c2.5-1.4,5.3-2.5,8.2-3.1c2.9-0.7,6.1-1,9.5-1c5.7,0,10.8,1.2,15.5,3.6
			c4.7,2.4,8.7,5.8,11.9,10c3.3,4.3,5.8,9.2,7.5,14.8c1.8,5.6,2.6,11.4,2.6,17.6c0,6.6-1,12.8-2.9,18.6c-1.9,5.7-4.7,10.7-8.2,15
			c-3.6,4.3-7.7,7.6-12.5,9.9c-4.8,2.3-9.9,3.5-15.5,3.5c-5.2,0-10-1.2-14.5-3.5c-4.5-2.3-8.4-5.5-11.6-9.7
			c-3.2-4.1-5.8-9.1-7.5-14.9C742.3,483.7,741.4,477.4,741.4,470.7z M760.2,431.6c-5.6,4.3-9.8,9.8-12.7,16.5
			c-2.9,6.7-4.3,14.3-4.3,22.7c0,7,0.9,13.4,2.8,19.1c1.9,5.8,4.7,10.7,8.3,14.8c3.7,4.1,8.2,7.3,13.6,9.6
			c-6.6-4.2-11.9-10-15.8-17.5c-3.9-7.4-5.9-16.5-5.9-27.2c0-5.4,0.5-10.2,1.5-14.5c1-4.3,2.6-8.4,4.6-12.2
			C754.5,439.1,757.1,435.3,760.2,431.6z M755.4,463.9c0,7.4,0.6,14.1,1.8,20.3c1.2,6.2,2.9,11.5,5.2,16c2.3,4.5,4.9,7.9,8,10.2
			c3.1,2.3,6.4,3.5,10,3.5c3,0,5.9-0.8,8.6-2.4c2.7-1.6,5.1-4.1,7.1-7.3c2.1-3.3,3.6-7.3,4.8-12.1c1.1-4.8,1.7-10.4,1.7-16.7
			c0-6.9-0.6-13.4-1.9-19.3c-1.3-5.9-3.1-10.9-5.4-15c-2.3-4.1-5-7.3-8.2-9.6c-3.1-2.3-6.5-3.4-10.1-3.4c-3.1,0-6,0.8-8.7,2.5
			c-2.7,1.7-5,4.1-6.9,7.3c-1.9,3.2-3.4,6.9-4.4,11.3C755.9,453.6,755.4,458.5,755.4,463.9z M786.5,429c3.8,2.5,7,6,9.7,10.5
			c2.7,4.5,4.7,9.8,6,16c1.3,6.2,2,13.1,2,20.5c0,7.1-0.8,13.2-2.3,18.4c-1.5,5.2-3.7,9.8-6.5,13.7c2.8-2.6,5.1-5.6,6.8-8.9
			c1.8-3.3,3.1-7.1,3.9-11.3c0.8-4.2,1.3-9,1.3-14.2c0-7.6-0.8-14.5-2.5-20.9s-4.1-11.6-7.3-15.8C794.6,432.8,790.8,430.2,786.5,429
			z"/>
		<linearGradient id="SVGID_18_" gradientUnits="userSpaceOnUse" x1="520.8071" y1="470.9487" x2="1171.3018" y2="470.9487">
			<stop  offset="0" style="stop-color:#397DED"/>
			<stop  offset="0.4756" style="stop-color:#26A1C8"/>
			<stop  offset="0.9944" style="stop-color:#13C4A3"/>
		</linearGradient>
		<path class="st17" d="M853.3,464.1v-3.7h18.1v43.2c0,1.7,0.2,3,0.7,3.9c0.5,0.8,1.2,1.4,2.1,1.6c0.9,0.3,2.1,0.4,3.6,0.4h0.5v3.6
			l-18.4,4.4v-8.8c-5.6,5.8-11.1,8.8-16.6,8.8c-4.3,0-7.7-1.6-10.3-4.8c-2.6-3.2-3.8-7.8-3.8-13.6v-22.1c0-3.3-0.1-5.6-0.3-7
			c-0.2-1.4-0.7-2.6-1.7-3.6c-1-1-2.6-1.8-4.8-2.2v-3.7h18.5v37.5c0,3.2,0.2,5.8,0.7,7.8c0.5,2,1.2,3.5,2.3,4.5
			c1.1,1,2.4,1.5,4.2,1.5c3.7,0,7.7-2.3,11.9-7v-30.4C859.8,467.8,857.7,464.4,853.3,464.1z M834.2,500.3v-28.6
			c0-5.3-1.6-7.9-4.9-7.9c-0.1,0-0.4,0-0.9,0.1c-0.5,0.1-0.8,0.1-0.9,0.1c1.4,1.4,2.3,2.8,2.7,4.4c0.4,1.6,0.6,3.5,0.6,5.9v23.5
			c0,5.6,1.1,10,3.2,13.1c2.1,3.2,5.1,4.7,8.8,4.7c1.1,0,2.1-0.1,3.1-0.3c-3.8-0.4-6.7-1.9-8.7-4.4
			C835.2,508.4,834.2,504.8,834.2,500.3z M864.8,507.6v-34.1c0-3-0.3-5.3-1-7.1c-0.6-1.8-2-2.6-4.2-2.6c-0.1,0-0.3,0-0.8,0.1
			c-0.4,0.1-0.7,0.1-0.8,0.1c1.3,1.1,2.3,2.4,2.7,4c0.5,1.6,0.7,3.6,0.7,6.1v40.2c1.2-0.5,2-1.3,2.5-2.3
			C864.5,511.1,864.8,509.6,864.8,507.6z"/>
		<linearGradient id="SVGID_19_" gradientUnits="userSpaceOnUse" x1="520.8071" y1="470.9487" x2="1171.3018" y2="470.9487">
			<stop  offset="0" style="stop-color:#397DED"/>
			<stop  offset="0.4756" style="stop-color:#26A1C8"/>
			<stop  offset="0.9944" style="stop-color:#13C4A3"/>
		</linearGradient>
		<path class="st18" d="M895,466.7c0,0.2,0.2,0.8,0.7,1.8c0.4,1.1,0.7,2.1,0.7,3c0,1.8-0.6,3.4-1.8,4.9c-1.2,1.4-2.7,2.1-4.5,2.1
			c-1.7,0-3.1-0.6-4.1-1.7c-1-1.1-1.5-2.4-1.5-3.9c0-2.2,0.8-4.4,2.6-6.5c1.7-2.1,4-3.8,7-5.2c3-1.3,6.3-2,9.9-2
			c2.6,0,5.1,0.6,7.3,1.7c2.3,1.1,4.1,2.9,5.4,5.2c1.3,2.3,2,5.1,2,8.4v32.2c0,2.6,0.6,3.9,1.8,3.9c0.7,0,1.6-0.7,2.6-2.1l1.9,2.7
			c-1.6,2.1-3.2,3.6-4.6,4.7c-1.4,1.1-3.1,1.6-5,1.6c-2.2,0-4-0.6-5.2-1.9c-1.2-1.2-2.1-3.2-2.6-5.8c-4.6,5-9.2,7.6-13.8,7.6
			c-3.2,0-5.8-1.1-7.7-3.2c-1.9-2.1-2.9-4.8-2.9-8.1c0-2.9,0.6-5.4,1.7-7.5c1.2-2.1,2.7-3.9,4.6-5.5c1.9-1.6,4.7-3.6,8.4-6
			c3.7-2.4,6.7-4.5,9.1-6.3v-9.6c0-2.9-0.5-5.1-1.6-6.5c-1-1.5-2.6-2.2-4.7-2.2c-1.8,0-3.2,0.4-4.3,1.2
			C895.5,464.8,895,465.7,895,466.7z M898.2,514.5c-3.1,0-5.5-0.8-7.3-2.3c-1.8-1.6-2.8-3.8-2.8-6.8c0-2.2,0.4-4.2,1.3-6.1
			c0.9-1.9,2.2-4.1,4-6.4c-2.7,2-4.8,4-6.3,6.1c-1.5,2.1-2.2,4.5-2.2,7.4c0,2.6,0.9,4.7,2.7,6.4c1.8,1.7,3.8,2.6,5.9,2.6
			C895.5,515.3,897.1,515,898.2,514.5z M893.5,474.5c-1.2,0.1-2.1-0.2-2.8-0.9c-0.6-0.7-1-1.6-1-2.5c0-1.3,0.3-2.5,0.9-3.5
			c0.6-1,1.6-2.5,3-4.5c-2.4,1.5-4.2,3-5.5,4.6c-1.3,1.5-1.9,3.2-1.9,5.1c0,0.8,0.3,1.6,1,2.4c0.7,0.7,1.5,1.1,2.4,1.1
			C891.2,476.2,892.5,475.7,893.5,474.5z M907.1,505.8v-20.4c-4.3,3-7.3,5.8-9,8.3c-1.7,2.5-2.6,5.4-2.6,8.9c0,2.3,0.5,4.1,1.5,5.4
			s2.2,1.9,3.5,1.9C902.7,509.8,904.9,508.5,907.1,505.8z M908.8,475.6v25.1c0,5,0.4,8.6,1.3,11.1c0.8,2.4,2.5,3.6,4.9,3.6
			c1.1,0,2-0.2,2.7-0.5c-2-0.4-3.5-1.4-4.3-3c-0.8-1.6-1.3-4.2-1.3-7.7V475c0-4.4-0.5-7.4-1.5-9.1c-1-1.7-2.7-2.7-5.1-3
			c1.3,0.8,2.2,2.1,2.6,3.7C908.6,468.1,908.8,471.2,908.8,475.6z"/>
		<linearGradient id="SVGID_20_" gradientUnits="userSpaceOnUse" x1="520.8071" y1="470.9487" x2="1171.3018" y2="470.9487">
			<stop  offset="0" style="stop-color:#397DED"/>
			<stop  offset="0.4756" style="stop-color:#26A1C8"/>
			<stop  offset="0.9944" style="stop-color:#13C4A3"/>
		</linearGradient>
		<path class="st19" d="M952.8,515.8h-23.4v-3.5h0.8c1.9,0,3.2-0.4,4-1.1c0.8-0.8,1.3-1.7,1.4-2.7c0.1-1.1,0.2-2.7,0.2-4.9v-58.2
			c0-3.2-0.4-5.7-1.3-7.6c-0.9-1.9-2.5-3.3-5-4.2v-2.5l16.1-6.8h2v65.5c7.9-9.6,11.9-16.3,11.9-20.1c0-1.5-0.5-2.8-1.4-3.8
			c-0.9-1-2.4-1.6-4.3-1.9v-3.6h21.5v3.6c-0.3,0.1-0.8,0.2-1.4,0.4c-0.6,0.2-1.3,0.5-1.9,0.8c-0.7,0.3-1.4,0.8-2.2,1.4
			c-0.8,0.6-1.6,1.5-2.6,2.7c-1.7,2.2-2.6,3.4-2.7,3.6l-3.3,5.3l8.4,20.2c1.8,4.1,3.3,7.3,4.8,9.5c1.4,2.2,3,3.7,4.7,4.4v3.5h-21.5
			v-3.5c2.3-0.4,3.4-1.4,3.4-3c0-0.5-0.1-1-0.4-1.6c-0.2-0.6-0.7-1.6-1.4-3.2l-6.7-15.7l-4.8,5.8v12.2c0,3.5,1.8,5.3,5.4,5.5V515.8z
			 M940.8,505.4v-59c0-3.7-0.2-6.5-0.5-8.4c-0.4-1.9-1.2-3.4-2.4-4.3c-1.3-1-3.3-1.3-6.2-1.2c2.3,1.2,3.8,2.8,4.5,4.7
			s1.2,4.5,1.2,7.8v59.9c0,2.1-0.1,3.6-0.4,4.7c-0.3,1.1-0.9,2.1-1.9,3.1C938.9,512.5,940.8,510.1,940.8,505.4z M963.2,501
			l-7.2-16.9l-2.4,3l7.4,17.8c0.2,0.5,0.5,1,0.7,1.4c0.2,0.4,0.4,0.9,0.6,1.4c0.2,0.5,0.3,1,0.3,1.5c0,0.9-0.5,2-1.5,3.1
			c1.4,0,2.5-0.5,3.2-1.3c0.7-0.8,1.1-1.9,1.1-3.2C965.3,506.6,964.6,504.3,963.2,501z M967.2,463.8h-8.9c1.7,1.6,2.6,3.5,2.6,5.7
			c0,0.9-0.2,2-0.6,3.2C963,468.3,965.3,465.3,967.2,463.8z"/>
		<linearGradient id="SVGID_21_" gradientUnits="userSpaceOnUse" x1="520.8071" y1="470.9487" x2="1171.3018" y2="470.9487">
			<stop  offset="0" style="stop-color:#397DED"/>
			<stop  offset="0.4756" style="stop-color:#26A1C8"/>
			<stop  offset="0.9944" style="stop-color:#13C4A3"/>
		</linearGradient>
		<path class="st20" d="M1000.9,459.2v8.4c2.8-2.7,5.4-4.8,7.9-6.3c2.4-1.4,5.3-2.2,8.6-2.2c9.5,0,14.3,5.9,14.3,17.8V506
			c0,2.8,0.5,4.5,1.6,5.2c1,0.7,2.6,1.1,4.7,1.1v3.5h-24.3v-3.5c2.2,0,3.7-0.4,4.7-1.3c1-0.9,1.5-2.7,1.5-5.5v-30.7
			c0-2.2-0.3-4.1-0.8-5.7c-0.6-1.5-1.4-2.7-2.4-3.5c-1.1-0.8-2.4-1.2-3.9-1.2c-1.9,0-3.8,0.6-5.6,1.9c-1.8,1.2-3.9,3.1-6.1,5.7v33.5
			c0,1.9,0.3,3.4,0.8,4.4c0.5,1,1.2,1.6,2,1.9s2.1,0.4,3.7,0.5v3.5h-24.4v-3.5c2.1,0,3.6-0.3,4.7-1c1.1-0.7,1.7-2.3,1.7-4.8v-28.1
			c0-2.8-0.5-5-1.5-6.8c-1-1.7-2.6-3-4.9-3.9v-2.1l16-6.3H1000.9z M991.1,476.2v29.1c0,1.9-0.1,3.3-0.3,4.1
			c-0.2,0.8-0.7,1.8-1.4,2.8c3.3-0.4,4.9-2.7,4.9-6.9v-30.3c0-2.1-0.6-3.9-1.8-5.4c-1.2-1.5-2.6-2.3-4.2-2.3c-0.2,0-0.5,0-0.9,0.1
			c-0.4,0.1-0.7,0.1-0.9,0.1C989.6,469.4,991.1,472.3,991.1,476.2z M1021.5,474.2v31.3c0,1.3,0,2.3-0.1,2.9
			c-0.1,0.6-0.2,1.2-0.4,1.8s-0.6,1.3-1.3,2.1h1c1.8,0,2.9-0.8,3.5-2.4c0.6-1.6,0.9-4.1,0.9-7.3v-28.1c0-3.6-0.6-6.4-1.9-8.3
			s-3.5-2.9-6.8-3.1c1.8,0.9,3.1,2.3,3.9,4C1021.1,468.8,1021.5,471.2,1021.5,474.2z"/>
		<linearGradient id="SVGID_22_" gradientUnits="userSpaceOnUse" x1="520.8071" y1="470.9487" x2="1171.3018" y2="470.9487">
			<stop  offset="0" style="stop-color:#397DED"/>
			<stop  offset="0.4756" style="stop-color:#26A1C8"/>
			<stop  offset="0.9944" style="stop-color:#13C4A3"/>
		</linearGradient>
		<path class="st21" d="M1059.9,459.2v45.9c0,1.9,0.2,3.4,0.5,4.4c0.3,1,0.9,1.7,1.8,2.1c0.9,0.4,2.3,0.6,4.1,0.7v3.5h-23.6v-3.5
			c2.1-0.1,3.5-0.6,4.4-1.6c0.8-1,1.2-2.7,1.2-5.2v-29.1c0-1.8-0.5-3.5-1.5-5.1c-1-1.6-2.4-2.7-4.1-3.5v-2l15.1-6.5H1059.9z
			 M1050,476.6v30.1c0,2.5-0.7,4.3-2.1,5.6c1.9,0,3.2-0.5,4.1-1.6c0.9-1.1,1.3-2.8,1.3-5.2v-29.8c0-2.7-0.5-4.8-1.6-6.3
			c-1-1.5-2.4-2.2-4.1-2.2c-0.8,0-1.4,0-1.9,0.1C1048.6,469.3,1050,472.3,1050,476.6z M1053.7,428.3c1.3,0,2.5,0.4,3.6,1.2
			c1.1,0.8,2,1.9,2.6,3.2c0.6,1.4,1,2.8,1,4.4c0,1.6-0.3,3.1-1,4.5c-0.6,1.4-1.5,2.5-2.6,3.3c-1.1,0.8-2.3,1.2-3.6,1.2
			c-1.9,0-3.6-0.9-4.9-2.7c-1.4-1.8-2.1-3.9-2.1-6.3c0-1.6,0.3-3,0.9-4.4c0.6-1.4,1.5-2.5,2.6-3.2
			C1051.3,428.7,1052.4,428.3,1053.7,428.3z M1054.6,430.4c-2,0-3.5,0.6-4.6,1.8c-1.1,1.2-1.6,2.8-1.6,4.9c0,2,0.5,3.6,1.6,4.9
			c1,1.3,2.6,2,4.6,2.1c-1.1-1.2-1.9-2.3-2.4-3.3c-0.5-1-0.8-2.2-0.8-3.6C1051.4,434.4,1052.5,432.1,1054.6,430.4z"/>
		<linearGradient id="SVGID_23_" gradientUnits="userSpaceOnUse" x1="520.8071" y1="470.9487" x2="1171.3018" y2="470.9487">
			<stop  offset="0" style="stop-color:#397DED"/>
			<stop  offset="0.4756" style="stop-color:#26A1C8"/>
			<stop  offset="0.9944" style="stop-color:#13C4A3"/>
		</linearGradient>
		<path class="st22" d="M1088.2,459.2v8.4c2.8-2.7,5.4-4.8,7.9-6.3c2.4-1.4,5.3-2.2,8.6-2.2c9.5,0,14.3,5.9,14.3,17.8V506
			c0,2.8,0.5,4.5,1.6,5.2c1,0.7,2.6,1.1,4.7,1.1v3.5H1101v-3.5c2.2,0,3.7-0.4,4.7-1.3c1-0.9,1.5-2.7,1.5-5.5v-30.7
			c0-2.2-0.3-4.1-0.8-5.7c-0.6-1.5-1.4-2.7-2.4-3.5c-1.1-0.8-2.4-1.2-3.9-1.2c-1.9,0-3.8,0.6-5.6,1.9c-1.8,1.2-3.9,3.1-6.1,5.7v33.5
			c0,1.9,0.3,3.4,0.8,4.4c0.5,1,1.2,1.6,2,1.9s2.1,0.4,3.7,0.5v3.5h-24.4v-3.5c2.1,0,3.6-0.3,4.7-1c1.1-0.7,1.7-2.3,1.7-4.8v-28.1
			c0-2.8-0.5-5-1.5-6.8c-1-1.7-2.6-3-4.9-3.9v-2.1l16-6.3H1088.2z M1078.4,476.2v29.1c0,1.9-0.1,3.3-0.3,4.1
			c-0.2,0.8-0.7,1.8-1.4,2.8c3.3-0.4,4.9-2.7,4.9-6.9v-30.3c0-2.1-0.6-3.9-1.8-5.4c-1.2-1.5-2.6-2.3-4.2-2.3c-0.2,0-0.5,0-0.9,0.1
			c-0.4,0.1-0.7,0.1-0.9,0.1C1076.9,469.4,1078.4,472.3,1078.4,476.2z M1108.8,474.2v31.3c0,1.3,0,2.3-0.1,2.9
			c-0.1,0.6-0.2,1.2-0.4,1.8s-0.6,1.3-1.3,2.1h1c1.8,0,2.9-0.8,3.5-2.4c0.6-1.6,0.9-4.1,0.9-7.3v-28.1c0-3.6-0.6-6.4-1.9-8.3
			s-3.5-2.9-6.8-3.1c1.8,0.9,3.1,2.3,3.9,4C1108.4,468.8,1108.8,471.2,1108.8,474.2z"/>
		<linearGradient id="SVGID_24_" gradientUnits="userSpaceOnUse" x1="520.8071" y1="470.9487" x2="1171.3018" y2="470.9487">
			<stop  offset="0" style="stop-color:#397DED"/>
			<stop  offset="0.4756" style="stop-color:#26A1C8"/>
			<stop  offset="0.9944" style="stop-color:#13C4A3"/>
		</linearGradient>
		<path class="st23" d="M1169.3,500l2,2c-1.5,3.6-3.3,6.5-5.4,8.8c-2.1,2.3-4.4,4-6.9,5.1s-5.1,1.6-7.9,1.6c-3.7,0-7.1-1.1-10.3-3.4
			c-3.2-2.2-5.7-5.5-7.5-9.7c-1.9-4.2-2.8-9-2.8-14.4c0-4.2,0.6-8.2,1.7-11.9c1.1-3.7,2.7-7,4.7-9.8c2-2.8,4.3-5,7-6.6
			c2.6-1.6,5.5-2.4,8.5-2.4c3,0,5.9,0.8,8.7,2.4c2.7,1.6,4.9,3.8,6.5,6.6c1.2,2,2,4.1,2.5,6.3c0.5,2.1,0.9,4.7,1.2,7.7h-30.5
			c0.1,4.4,0.7,8.1,1.8,11.2c1.1,3,2.4,5.5,4.1,7.4c1.7,1.9,3.5,3.2,5.4,4c1.9,0.8,3.8,1.2,5.5,1.2
			C1161.9,505.9,1165.8,503.9,1169.3,500z M1141.6,465.6c-6.3,6.3-9.4,14.5-9.4,24.6c0,7.4,1.9,13.4,5.6,18.1c3.8,4.7,8.1,7,13,7
			c2.9,0,5.7-0.7,8.6-2.2c2.9-1.5,5.3-3.6,7.3-6.5c-2.1,1.6-4.1,3-6.3,4c-2.1,1-4.7,1.6-7.7,1.6c-5,0-9.2-2.2-12.5-6.6
			c-3.4-4.4-5-10.1-5-17.2c0-4.5,0.6-8.5,1.7-12.1C1137.9,472.8,1139.5,469.2,1141.6,465.6z M1141.1,478.1h17.6V476
			c0-2.5-0.4-4.6-1.1-6.6c-0.7-1.9-1.7-3.4-2.9-4.4c-1.2-1-2.6-1.6-4.2-1.6c-2.6,0-4.7,1.4-6.5,4.3
			C1142.2,470.6,1141.3,474,1141.1,478.1z M1160.3,478.1h3.5c-0.1-4.7-0.9-8.2-2.3-10.5c-1.4-2.3-3.9-3.8-7.3-4.5
			c2.2,1.2,3.7,2.8,4.6,4.8c0.9,2,1.4,5,1.4,9V478.1z"/>
	</g>
</g>
</svg>
