<svg id="visual" viewBox="0 0 960 300" width="960" height="300" xmlns="http://www.w3.org/2000/svg" xmlns:xlink="http://www.w3.org/1999/xlink" version="1.1"><rect x="0" y="0" width="960" height="300" fill="#001220"></rect><path d="M0 121L22.8 118C45.7 115 91.3 109 137 102C182.7 95 228.3 87 274 87.8C319.7 88.7 365.3 98.3 411.2 102.5C457 106.7 503 105.3 548.8 107.2C594.7 109 640.3 114 686 115.2C731.7 116.3 777.3 113.7 823 113C868.7 112.3 914.3 113.7 937.2 114.3L960 115L960 0L937.2 0C914.3 0 868.7 0 823 0C777.3 0 731.7 0 686 0C640.3 0 594.7 0 548.8 0C503 0 457 0 411.2 0C365.3 0 319.7 0 274 0C228.3 0 182.7 0 137 0C91.3 0 45.7 0 22.8 0L0 0Z" fill="#fa7268"></path><path d="M0 70L22.8 71.5C45.7 73 91.3 76 137 76.8C182.7 77.7 228.3 76.3 274 74.3C319.7 72.3 365.3 69.7 411.2 68.8C457 68 503 69 548.8 69.2C594.7 69.3 640.3 68.7 686 65.8C731.7 63 777.3 58 823 56.8C868.7 55.7 914.3 58.3 937.2 59.7L960 61L960 0L937.2 0C914.3 0 868.7 0 823 0C777.3 0 731.7 0 686 0C640.3 0 594.7 0 548.8 0C503 0 457 0 411.2 0C365.3 0 319.7 0 274 0C228.3 0 182.7 0 137 0C91.3 0 45.7 0 22.8 0L0 0Z" fill="#eb5967"></path><path d="M0 49L22.8 49.2C45.7 49.3 91.3 49.7 137 52.5C182.7 55.3 228.3 60.7 274 63.3C319.7 66 365.3 66 411.2 65.7C457 65.3 503 64.7 548.8 60C594.7 55.3 640.3 46.7 686 44.5C731.7 42.3 777.3 46.7 823 51.8C868.7 57 914.3 63 937.2 66L960 69L960 0L937.2 0C914.3 0 868.7 0 823 0C777.3 0 731.7 0 686 0C640.3 0 594.7 0 548.8 0C503 0 457 0 411.2 0C365.3 0 319.7 0 274 0C228.3 0 182.7 0 137 0C91.3 0 45.7 0 22.8 0L0 0Z" fill="#da3f67"></path><path d="M0 35L22.8 33C45.7 31 91.3 27 137 24.7C182.7 22.3 228.3 21.7 274 21C319.7 20.3 365.3 19.7 411.2 21.8C457 24 503 29 548.8 29.8C594.7 30.7 640.3 27.3 686 25.5C731.7 23.7 777.3 23.3 823 25.5C868.7 27.7 914.3 32.3 937.2 34.7L960 37L960 0L937.2 0C914.3 0 868.7 0 823 0C777.3 0 731.7 0 686 0C640.3 0 594.7 0 548.8 0C503 0 457 0 411.2 0C365.3 0 319.7 0 274 0C228.3 0 182.7 0 137 0C91.3 0 45.7 0 22.8 0L0 0Z" fill="#c62368"></path></svg>