<svg id="visual" viewBox="0 0 960 300" width="960" height="300" xmlns="http://www.w3.org/2000/svg" xmlns:xlink="http://www.w3.org/1999/xlink" version="1.1"><rect x="0" y="0" width="960" height="300" fill="#001220"></rect><path d="M0 90L22.8 87.7C45.7 85.3 91.3 80.7 137 78.3C182.7 76 228.3 76 274 78.3C319.7 80.7 365.3 85.3 411.2 86C457 86.7 503 83.3 548.8 83.8C594.7 84.3 640.3 88.7 686 92.3C731.7 96 777.3 99 823 99.7C868.7 100.3 914.3 98.7 937.2 97.8L960 97L960 0L937.2 0C914.3 0 868.7 0 823 0C777.3 0 731.7 0 686 0C640.3 0 594.7 0 548.8 0C503 0 457 0 411.2 0C365.3 0 319.7 0 274 0C228.3 0 182.7 0 137 0C91.3 0 45.7 0 22.8 0L0 0Z" fill="#fa7268"></path><path d="M0 50L22.8 49.5C45.7 49 91.3 48 137 53.3C182.7 58.7 228.3 70.3 274 72.7C319.7 75 365.3 68 411.2 63.7C457 59.3 503 57.7 548.8 57.7C594.7 57.7 640.3 59.3 686 60.3C731.7 61.3 777.3 61.7 823 59.5C868.7 57.3 914.3 52.7 937.2 50.3L960 48L960 0L937.2 0C914.3 0 868.7 0 823 0C777.3 0 731.7 0 686 0C640.3 0 594.7 0 548.8 0C503 0 457 0 411.2 0C365.3 0 319.7 0 274 0C228.3 0 182.7 0 137 0C91.3 0 45.7 0 22.8 0L0 0Z" fill="#e34c67"></path><path d="M0 41L22.8 43.2C45.7 45.3 91.3 49.7 137 48C182.7 46.3 228.3 38.7 274 34.8C319.7 31 365.3 31 411.2 32.7C457 34.3 503 37.7 548.8 37.3C594.7 37 640.3 33 686 31C731.7 29 777.3 29 823 31C868.7 33 914.3 37 937.2 39L960 41L960 0L937.2 0C914.3 0 868.7 0 823 0C777.3 0 731.7 0 686 0C640.3 0 594.7 0 548.8 0C503 0 457 0 411.2 0C365.3 0 319.7 0 274 0C228.3 0 182.7 0 137 0C91.3 0 45.7 0 22.8 0L0 0Z" fill="#c62368"></path></svg>