<svg id="visual" viewBox="0 0 960 300" width="960" height="300" xmlns="http://www.w3.org/2000/svg" xmlns:xlink="http://www.w3.org/1999/xlink" version="1.1"><rect x="0" y="0" width="960" height="300" fill="#001220"></rect><path d="M0 92L22.8 88.8C45.7 85.7 91.3 79.3 137 81.2C182.7 83 228.3 93 274 95.2C319.7 97.3 365.3 91.7 411.2 88C457 84.3 503 82.7 548.8 86.7C594.7 90.7 640.3 100.3 686 99.8C731.7 99.3 777.3 88.7 823 83C868.7 77.3 914.3 76.7 937.2 76.3L960 76L960 0L937.2 0C914.3 0 868.7 0 823 0C777.3 0 731.7 0 686 0C640.3 0 594.7 0 548.8 0C503 0 457 0 411.2 0C365.3 0 319.7 0 274 0C228.3 0 182.7 0 137 0C91.3 0 45.7 0 22.8 0L0 0Z" fill="#fa7268"></path><path d="M0 85L22.8 82.5C45.7 80 91.3 75 137 73C182.7 71 228.3 72 274 69.3C319.7 66.7 365.3 60.3 411.2 59.5C457 58.7 503 63.3 548.8 67.2C594.7 71 640.3 74 686 73.8C731.7 73.7 777.3 70.3 823 65.3C868.7 60.3 914.3 53.7 937.2 50.3L960 47L960 0L937.2 0C914.3 0 868.7 0 823 0C777.3 0 731.7 0 686 0C640.3 0 594.7 0 548.8 0C503 0 457 0 411.2 0C365.3 0 319.7 0 274 0C228.3 0 182.7 0 137 0C91.3 0 45.7 0 22.8 0L0 0Z" fill="#e34c67"></path><path d="M0 52L22.8 51.7C45.7 51.3 91.3 50.7 137 45.5C182.7 40.3 228.3 30.7 274 27.5C319.7 24.3 365.3 27.7 411.2 32.3C457 37 503 43 548.8 41.5C594.7 40 640.3 31 686 30.5C731.7 30 777.3 38 823 41.7C868.7 45.3 914.3 44.7 937.2 44.3L960 44L960 0L937.2 0C914.3 0 868.7 0 823 0C777.3 0 731.7 0 686 0C640.3 0 594.7 0 548.8 0C503 0 457 0 411.2 0C365.3 0 319.7 0 274 0C228.3 0 182.7 0 137 0C91.3 0 45.7 0 22.8 0L0 0Z" fill="#c62368"></path></svg>